<?xml version="1.0" encoding="UTF-8"?>
<svg version="1.1" xmlns="http://www.w3.org/2000/svg" width="650" height="650">
<path d="M0 0 C1.65 1.65 3.3 3.3 5 5 C4.8131665 5.53367187 4.62633301 6.06734375 4.43383789 6.6171875 C-3.38543706 29.43594885 -5.82769075 51.98473633 -5 76 C-4.9685791 77.02383789 -4.9371582 78.04767578 -4.90478516 79.10253906 C-4.84983887 80.0922168 -4.79489258 81.08189453 -4.73828125 82.1015625 C-4.69356689 82.99439941 -4.64885254 83.88723633 -4.6027832 84.80712891 C-4.22248474 87.16111424 -4.22248474 87.16111424 -2.09082031 88.18798828 C-1.40084961 88.45595215 -0.71087891 88.72391602 0 89 C8.10177443 95.98976617 14.68870684 104.41481855 21 113 C21.6501709 113.88365234 21.6501709 113.88365234 22.31347656 114.78515625 C32.93868177 129.44616723 40.30512228 145.54215638 45 163 C45.24492187 163.88300781 45.48984375 164.76601562 45.7421875 165.67578125 C47.04860314 170.85670356 47.16940342 175.66379228 47 181 C48.18916016 180.566875 48.18916016 180.566875 49.40234375 180.125 C66.79153245 174.59120293 85.75063591 175.24164299 103 181 C103.00386719 179.94039063 103.00386719 179.94039063 103.0078125 178.859375 C104.33320907 143.69218597 127.25599532 110.4614171 152 87 C152.66 86.67 153.32 86.34 154 86 C158.37279054 58.72612055 153.77052476 30.86698547 145 5 C146.65 3.35 148.3 1.7 150 0 C163.75630524 15.59297815 172.39360908 34.84703973 177 55 C177.3403125 56.38832031 177.3403125 56.38832031 177.6875 57.8046875 C179.13241241 64.72822611 179.26632408 71.70159053 179.375 78.75 C179.40110352 79.73291016 179.42720703 80.71582031 179.45410156 81.72851562 C179.47241185 89.44499275 177.97853797 94.69748071 172.7734375 100.46875 C171.98195313 101.1390625 171.19046875 101.809375 170.375 102.5 C169.49585938 103.2528125 168.61671875 104.005625 167.7109375 104.78125 C164.33344215 107.54554015 160.92625914 110.26912365 157.5 112.97265625 C154.05216155 115.76863774 150.77329677 118.72945015 147.5 121.7265625 C145.85391501 123.22347103 144.18743323 124.69829957 142.5 126.1484375 C128.25021508 138.48340758 118.05832133 153.65400355 110.375 170.75 C110.03194824 171.5126416 109.68889648 172.2752832 109.33544922 173.06103516 C107.73376183 176.77604849 107 178.82928518 107 183 C109.23169631 184.86331164 109.23169631 184.86331164 112.125 186.4375 C116.48313806 188.98269987 120.19551675 191.70917844 124 195 C135.42858732 182.92711665 135.42858732 182.92711665 146.6171875 170.6328125 C151.68265416 165.03588704 156.88718626 159.56620752 162.05810547 154.06689453 C170.18563926 145.41619035 178.27335657 136.73032752 186.28125 127.96875 C188.7042605 125.31902506 191.14035225 122.68160541 193.57885742 120.04614258 C207.40598028 105.10114716 221.03409919 89.92082306 233.8125 74.0625 C243.695092 61.98182259 256.01051328 52.57872643 269 44 C269.88945313 43.4121875 270.77890625 42.824375 271.6953125 42.21875 C294.81176747 27.49181785 319.89701973 16.51493826 345.8125 7.8125 C346.55457703 7.56176727 347.29665405 7.31103455 348.06121826 7.05270386 C350.16926815 6.3444499 352.28083666 5.64823361 354.39453125 4.95703125 C356.23301636 4.35338745 356.23301636 4.35338745 358.10864258 3.73754883 C361 3 361 3 363 4 C363.88067847 6.86577533 364.64307995 9.69155369 365.34765625 12.6015625 C365.56441513 13.47138763 365.78117401 14.34121277 366.00450134 15.23739624 C366.46301128 17.08422718 366.9175309 18.93205257 367.3684082 20.78076172 C368.05503537 23.59441156 368.75392143 26.40478358 369.45507812 29.21484375 C369.89917054 31.01023551 370.34255233 32.80580322 370.78515625 34.6015625 C370.99245865 35.43724762 371.19976105 36.27293274 371.41334534 37.13394165 C374.96190382 51.73799015 375.84776513 65.4312034 368.5 78.9375 C365.3396976 83.95360651 361.3180322 87.73636377 357.0625 91.82421875 C351.59463784 97.29739295 347.1604885 103.70929637 342.55908203 109.90625 C340.19262724 113.0842513 337.78699694 116.23150689 335.375 119.375 C334.21097656 120.90253906 334.21097656 120.90253906 333.0234375 122.4609375 C331 125 331 125 329.28125 126.50390625 C327.3973163 128.70374347 327.42953488 130.71398476 327.125 133.5625 C325.41870962 144.90591846 319.8638983 151.93651037 312 160 C311.37222656 160.67804688 310.74445312 161.35609375 310.09765625 162.0546875 C300.85466464 171.78620932 289.61768653 179.39965153 278 186 C276.90429688 186.63421875 275.80859375 187.2684375 274.6796875 187.921875 C266.26954242 192.56537345 257.44011362 195.69398357 248.33203125 198.69140625 C247.68313808 198.90623594 247.03424492 199.12106564 246.36568832 199.34240532 C232.18995412 204.03140219 217.90105976 208.31454962 203.56744003 212.49524689 C200.916698 213.26934629 198.26720587 214.04768024 195.61765575 214.82584763 C176.78447238 220.35588962 157.92867497 225.80499735 139 231 C139.41698932 235.25089633 139.41698932 235.25089633 141.6015625 238.73046875 C142.26929688 239.21128906 142.93703125 239.69210937 143.625 240.1875 C154.53869565 249.07074064 160.68627853 264.39983234 163 278 C163.04422667 279.99951094 163.05610789 282.00078718 163 284 C165.55493055 281.45427641 168.096945 278.90044662 170.61328125 276.31640625 C184.64298666 262.0024521 184.64298666 262.0024521 191 261 C204.94720543 261.68452542 219.80671681 269.71407584 232.1875 275.5 C233.14293701 275.93820068 234.09837402 276.37640137 235.08276367 276.82788086 C243.08761596 280.66290783 250.83162558 285.28697036 254 294 C254 294.99 254 295.98 254 297 C284.38286534 292.64106972 317.13200687 287.55223047 342 268 C342.66 268.33 343.32 268.66 344 269 C319.32941991 297.14134611 288.29327552 307.23983287 252.14453125 312.59863281 C249.95892123 312.90594006 249.95892123 312.90594006 248 314 C223.92084477 309.03784912 203.63429097 294.43061341 187 277 C180.62032104 284.39327281 174.46717419 291.86668846 168.6796875 299.734375 C167 302 167 302 166 303 C165.84344973 304.48638992 165.74933057 305.97949127 165.68359375 307.47265625 C165.64169922 308.37177734 165.59980469 309.27089844 165.55664062 310.19726562 C165.51732422 311.14279297 165.47800781 312.08832031 165.4375 313.0625 C165.39431641 314.01189453 165.35113281 314.96128906 165.30664062 315.93945312 C165.20020724 318.29281353 165.09818992 320.64628354 165 323 C166.01578125 322.54109375 167.0315625 322.0821875 168.078125 321.609375 C192.0820823 310.86290692 192.0820823 310.86290692 199 313 C213.63714981 326.89635165 220.27631583 349.70701733 227 368 C227.49867412 369.34573023 227.99787557 370.69126515 228.49755859 372.03662109 C230.02438324 376.14750972 231.54557189 380.26044949 233.0625 384.375 C233.42538116 385.35888199 233.42538116 385.35888199 233.79559326 386.36264038 C234.48214723 388.227809 235.16497884 390.09434652 235.84765625 391.9609375 C236.4355896 393.56654541 236.4355896 393.56654541 237.03540039 395.20458984 C239.53610115 402.45162191 240.06298004 408.85304658 237 416 C237.62238134 421.88772745 243.13765186 425.93838048 247 430 C247.75667969 430.82113281 248.51335937 431.64226562 249.29296875 432.48828125 C266.52244757 450.58356303 287.9838693 460.97146107 312 467 C312 467.33 312 467.66 312 468 C297.76745775 468.57935574 285.20432208 468.65708351 272 463 C271.3085791 462.71592285 270.6171582 462.4318457 269.90478516 462.13916016 C245.00629162 451.7858312 218.78312989 431.69321527 208.0625 406.5 C197.87257523 381.54652136 188.08230083 354.24157441 188 327 C184.20031893 329.50090296 180.46387661 332.06926714 176.77490234 334.73095703 C175.15665628 335.88799184 173.51120969 337.00674115 171.86328125 338.12109375 C162.96783711 344.92920312 161.19828534 353.23035371 159.390625 363.81518555 C159 366 159 366 158.1171875 369.22265625 C157.94983884 373.18881959 159.86317475 375.25264368 162.25 378.1875 C186.88796849 410.60750399 186.88796849 410.60750399 185 426 C184.01 426.66 183.02 427.32 182 428 C180.78043751 430.19280941 179.6878575 432.35777534 178.625 434.625 C170.95848963 450.39906289 162.44611681 465.74339537 153.60961914 480.88925171 C152.91872116 482.07575099 152.23146153 483.26437736 151.5480957 484.45523071 C143.64632392 498.19309625 143.64632392 498.19309625 135.625 501.3125 C134.75875 501.539375 133.8925 501.76625 133 502 C130.56703554 512.2676893 129.6773189 522.25788873 129.625 532.8125 C129.61146484 533.93180908 129.59792969 535.05111816 129.58398438 536.2043457 C129.66917553 552.27116083 135.07394106 566.36683408 145 579 C133.00409028 575.34142343 124.51519467 568.1665128 118.46875 557.23046875 C113.85101854 547.63256761 112.58851723 538.58819797 112.5625 528 C112.55863281 526.91017822 112.55476563 525.82035645 112.55078125 524.69750977 C112.68564997 515.14922571 114.58395972 506.86950459 118 498 C117.34 498 116.68 498 116 498 C116.14111958 468.64712774 142.7809729 436.04368247 161 415 C163.265625 413.171875 163.265625 413.171875 165 412 C163.44883925 407.20052615 160.72983628 403.75604535 157.625 399.875 C157.14289063 399.25496094 156.66078125 398.63492187 156.1640625 397.99609375 C153.68754824 394.86680263 151.38566146 392.19827308 148 390 C147.73010254 390.88776123 147.46020508 391.77552246 147.18212891 392.69018555 C146.07844186 395.78037252 144.83444204 398.19616278 143.0859375 400.95703125 C142.49804443 401.8917627 141.91015137 402.82649414 141.30444336 403.78955078 C140.66772705 404.78712402 140.03101074 405.78469727 139.375 406.8125 C138.71056885 407.86421387 138.0461377 408.91592773 137.36157227 409.99951172 C135.24883011 413.33802544 133.12596282 416.66989184 131 420 C130.32469238 421.05912598 129.64938477 422.11825195 128.95361328 423.20947266 C125.61565061 428.44118848 122.2697746 433.66776846 118.91796875 438.890625 C115.18303716 444.71096251 111.46270093 450.54046111 107.75 456.375 C107.18007324 457.27009277 106.61014648 458.16518555 106.02294922 459.08740234 C103.23849284 463.46457738 100.46408539 467.84769511 97.70703125 472.2421875 C82.82458421 495.96023307 82.82458421 495.96023307 78 499 C73.97916222 499.51174299 71.86630443 499.59288051 68.48217773 497.27685547 C66.01603879 495.01471209 64.45383255 492.98195522 62.72265625 490.1328125 C62.13395752 489.17592529 61.54525879 488.21903809 60.9387207 487.2331543 C60.31956787 486.20746338 59.70041504 485.18177246 59.0625 484.125 C57.72484817 481.94606806 56.38628626 479.76769459 55.046875 477.58984375 C54.37205078 476.48753418 53.69722656 475.38522461 53.00195312 474.24951172 C49.9909102 469.36207497 46.90516598 464.52354881 43.8125 459.6875 C42.65468666 457.87256247 41.49713134 456.05746031 40.33984375 454.2421875 C39.78151855 453.3665918 39.22319336 452.49099609 38.64794922 451.58886719 C35.06007185 445.95244472 31.4975633 440.2999936 27.93359375 434.6484375 C25.95116848 431.50490582 23.96381356 428.36457013 21.97265625 425.2265625 C20.9607416 423.63033251 19.94902196 422.03397887 18.9375 420.4375 C18.44628662 419.66253174 17.95507324 418.88756348 17.44897461 418.08911133 C14.89791601 414.0510923 12.37985866 409.99613924 9.90625 405.91015625 C9.40746338 405.08652588 8.90867676 404.26289551 8.39477539 403.41430664 C7.4471487 401.84434846 6.50340734 400.27203625 5.56420898 398.69702148 C5.13954346 397.99262939 4.71487793 397.2882373 4.27734375 396.5625 C3.90859131 395.94503906 3.53983887 395.32757813 3.15991211 394.69140625 C1.93492369 392.90510447 0.57466022 391.48150014 -1 390 C-1.27255615 390.58193115 -1.5451123 391.1638623 -1.82592773 391.76342773 C-2.98399626 393.96951336 -4.26576644 395.81430788 -5.78515625 397.78515625 C-6.31560547 398.48060547 -6.84605469 399.17605469 -7.39257812 399.89257812 C-8.50920041 401.34353411 -9.62639146 402.79405256 -10.74414062 404.24414062 C-11.27330078 404.93830078 -11.80246094 405.63246094 -12.34765625 406.34765625 C-13.07480835 407.29137085 -13.07480835 407.29137085 -13.81665039 408.25415039 C-15.18454954 410.10279471 -15.18454954 410.10279471 -16 413 C-15.40872314 413.25692627 -14.81744629 413.51385254 -14.20825195 413.77856445 C-7.34980784 417.5721295 -2.67529742 426.00276202 1.6875 432.3125 C2.28836426 433.17842773 2.88922852 434.04435547 3.50830078 434.93652344 C34.40181268 479.77643515 34.40181268 479.77643515 33 498 C32.34 498 31.68 498 31 498 C31.34933594 499.07378906 31.69867188 500.14757812 32.05859375 501.25390625 C32.51852249 502.69001026 32.97814142 504.12621352 33.4375 505.5625 C33.78264648 506.61920898 33.78264648 506.61920898 34.13476562 507.69726562 C39.14724328 523.46114463 38.32438195 541.23620194 31.375 556.3125 C25.17257869 567.58275335 16.65111461 574.84751505 5 580 C4.34 579.67 3.68 579.34 3 579 C3.42410156 578.59652344 3.84820312 578.19304688 4.28515625 577.77734375 C15.48744892 566.18112431 19.90843381 550.18226258 20.375 534.375 C20.16803165 524.87624191 18.68251346 515.34307224 17 506 C16.8297229 504.91549561 16.8297229 504.91549561 16.65600586 503.80908203 C16.43952393 503.21208496 16.22304199 502.61508789 16 502 C13.03243113 500.61630547 13.03243113 500.61630547 10.984375 500.00390625 C-6.1799099 491.32039992 -17.70921326 456.82444821 -26.41845703 440.5168457 C-26.97388184 439.4774585 -27.52930664 438.43807129 -28.1015625 437.3671875 C-28.58963379 436.45050293 -29.07770508 435.53381836 -29.58056641 434.58935547 C-32.33493341 429.46360856 -32.33493341 429.46360856 -36 425 C-35.63827539 418.68482167 -32.82809965 412.68066041 -30.125 407.0625 C-29.73860352 406.25200195 -29.35220703 405.44150391 -28.95410156 404.60644531 C-25.19170163 396.96637946 -20.64088931 389.94415875 -15.796875 382.953125 C-15.10464844 381.95091919 -15.10464844 381.95091919 -14.3984375 380.9284668 C-13 379 -13 379 -11.4765625 377.20629883 C-8.69903194 373.83825844 -7.94795121 372.70916476 -8.28125 368.16796875 C-8.65394067 366.83133126 -9.06176916 365.50410619 -9.5 364.1875 C-9.70850586 363.48753906 -9.91701172 362.78757812 -10.13183594 362.06640625 C-10.54908221 360.67258512 -10.9781684 359.28224487 -11.41992188 357.89599609 C-11.91090143 356.29122032 -12.30282522 354.65665326 -12.671875 353.01953125 C-15.47299905 340.8119298 -27.30324382 334.64609131 -37 328 C-37.08451416 328.59087402 -37.16902832 329.18174805 -37.25610352 329.79052734 C-40.80907879 354.0494142 -46.9761894 377.2027665 -56 400 C-56.30437988 400.77649902 -56.60875977 401.55299805 -56.92236328 402.35302734 C-60.27178921 410.79153187 -63.90577993 418.15322491 -70 425 C-70.804375 426.03125 -71.60875 427.0625 -72.4375 428.125 C-75.072103 431.08089605 -77.84037198 433.60375695 -80.85546875 436.16015625 C-82.26066116 437.36570384 -83.63996904 438.60224984 -84.98828125 439.87109375 C-106.34400197 459.85940486 -131.14102635 468.91354391 -160.12670898 468.06347656 C-161.05398804 468.03205566 -161.05398804 468.03205566 -162 468 C-162 467.34 -162 466.68 -162 466 C-160.69289063 465.76216797 -160.69289063 465.76216797 -159.359375 465.51953125 C-151.04616707 463.89107818 -143.63380432 461.66422607 -136 458 C-135.41605469 457.72027344 -134.83210938 457.44054687 -134.23046875 457.15234375 C-118.03336876 449.27543828 -96.5158527 435.45327012 -88 419 C-87.9384058 415.58863524 -87.9384058 415.58863524 -89 412 C-89.86715202 404.8737892 -88.89723634 398.91289135 -86.390625 392.2265625 C-85.98876228 391.12384003 -85.98876228 391.12384003 -85.57878113 389.99884033 C-85.0117029 388.44576454 -84.44084579 386.89406389 -83.86642456 385.34368896 C-83.02361665 383.06388333 -82.19524434 380.77937176 -81.37133789 378.49267578 C-62.01113358 324.90928983 -62.01113358 324.90928983 -49 313 C-43.71974984 311.15491259 -39.79444806 312.71511322 -34.8125 314.625 C-34.06943604 314.89844238 -33.32637207 315.17188477 -32.56079102 315.45361328 C-26.57964502 317.68918067 -20.73907556 320.19863699 -15 323 C-14.49947028 311.42961523 -14.55891558 302.69619652 -22.48095703 293.76855469 C-23.47947115 292.69273416 -24.48920728 291.62721303 -25.51025391 290.57275391 C-27.89931344 288.05057732 -30.01880504 285.33845459 -32.1875 282.625 C-33.45690179 281.08215439 -34.72714474 279.53999772 -36 278 C-39.5802206 279.32600763 -41.3182902 281.49217647 -43.65625 284.43066406 C-54.40454296 296.98335795 -71.88709593 305.13860115 -87 311 C-88.06476563 311.41507812 -89.12953125 311.83015625 -90.2265625 312.2578125 C-114.93344664 317.11734458 -150.74143193 303.25329207 -171.34985352 289.63769531 C-180.34065936 283.43897432 -188.04918958 276.40355215 -195 268 C-191.07096463 268 -189.52739861 269.41425489 -186.25 271.5625 C-163.13686291 286.18026072 -136.47503064 293.08624052 -109.46484375 295.60546875 C-106 296 -106 296 -104 297 C-103.9175 296.13375 -103.835 295.2675 -103.75 294.375 C-102.65163546 289.43235957 -100.43037846 286.14121244 -96.46875 282.98046875 C-81.02564046 273.65364338 -55.74608992 258.39706653 -37 262 C-29.41752564 266.21382731 -23.37985891 273.47046396 -17.37109375 279.65625 C-15.43712639 282.11716568 -15.43712639 282.11716568 -14 282 C-13.76925781 280.98421875 -13.53851563 279.9684375 -13.30078125 278.921875 C-9.670544 263.38483869 -4.67325574 247.66243406 9 238 C9.66 238 10.32 238 11 238 C11.33 235.36 11.66 232.72 12 230 C10.74501709 229.73533936 9.49003418 229.47067871 8.19702148 229.19799805 C2.67833093 227.96933026 -2.72774499 226.4195104 -8.15234375 224.83203125 C-9.22522141 224.52042053 -10.29809906 224.20880981 -11.40348816 223.88775635 C-14.91587645 222.86623719 -18.42684604 221.83996284 -21.9375 220.8125 C-23.14363953 220.45985077 -24.34977905 220.10720154 -25.59246826 219.74386597 C-31.8865446 217.9028717 -38.17937653 216.05769203 -44.47119141 214.20898438 C-49.3569553 212.77388501 -54.24453065 211.34529663 -59.13427734 209.92382812 C-64.74508767 208.29261405 -70.35192911 206.64840235 -75.95608521 204.99447632 C-78.03086149 204.38428561 -80.10689351 203.77834474 -82.18429565 203.17715454 C-111.91490991 194.56154026 -137.30822074 182.3868207 -160 161 C-160.86882812 160.21882812 -161.73765625 159.43765625 -162.6328125 158.6328125 C-169.64284592 152.08313949 -173.96503803 145.10488592 -177 136 C-176.9175 134.72125 -176.835 133.4425 -176.75 132.125 C-176.7261769 128.83741262 -176.77860696 128.26290424 -179 125.625 C-179.99 124.75875 -180.98 123.8925 -182 123 C-186.04785051 118.2431025 -189.81098102 113.25260802 -193.57006836 108.26660156 C-199.67248767 100.20358969 -206.39205817 92.87808918 -213.33203125 85.53125 C-221.10811572 77.10595625 -224.98599162 68.8852062 -225.00439453 57.21264648 C-224.4037425 47.53290799 -222.08949493 38.56454073 -219.5625 29.25 C-218.94649331 26.93846212 -218.33370183 24.62608931 -217.72128296 22.31359863 C-217.33153254 20.84278324 -216.94047534 19.3723134 -216.54800415 17.90222168 C-215.23278947 12.95764473 -214.04615421 8.00782015 -213 3 C-204.91713539 4.88234756 -197.11096041 7.16431104 -189.3125 10 C-188.24161133 10.38881348 -187.17072266 10.77762695 -186.06738281 11.17822266 C-155.14888838 22.60226783 -124.0297659 37.15081209 -99 59 C-98.16597656 59.71414062 -97.33195312 60.42828125 -96.47265625 61.1640625 C-89.11895867 67.59993015 -82.87764814 74.65919709 -76.75 82.25 C-72.3132633 87.72299873 -67.57718081 92.86419317 -62.7734375 98.01171875 C-60.63645686 100.3035841 -58.54776652 102.62758757 -56.5 105 C-51.97689941 110.22571816 -47.24286265 115.25933181 -42.54638672 120.32861328 C-36.82295451 126.5146911 -31.13063393 132.72929401 -25.5 139 C-14.59128686 151.14439039 -3.43933494 163.06165595 7.72265625 174.97265625 C13.90277459 181.5729735 20.05401226 188.18611964 26 195 C26.47308594 194.63648438 26.94617188 194.27296875 27.43359375 193.8984375 C41.76923077 183 41.76923077 183 45 183 C36.4479504 163.56222527 27.74501955 146.57866023 13 131 C12.35289062 130.31164062 11.70578125 129.62328125 11.0390625 128.9140625 C6.5461215 124.27441323 1.6981476 120.20511387 -3.33203125 116.16015625 C-6.32238666 113.73897537 -9.22040164 111.23332451 -12.09765625 108.6796875 C-13.40556494 107.52486052 -14.72674997 106.38495164 -16.05859375 105.2578125 C-28.59915987 94.59003414 -28.59915987 94.59003414 -29.17700195 87.97314453 C-30.01841738 55.83845029 -21.41647271 26.10734718 -1 1 C-0.67 0.67 -0.34 0.34 0 0 Z " fill="#32312F" transform="translate(253,33)"/>
<path d="M0 0 C3.23438931 0.84436985 6.2430641 2.0598802 9.3125 3.375 C10.60619507 3.91411011 10.60619507 3.91411011 11.92602539 4.46411133 C54.16036144 22.37625149 93.38489741 51.19990343 123.3203125 86.1015625 C125.49218393 88.55628231 127.81694789 90.82984137 130.15551758 93.12426758 C131.94025826 94.93924609 133.60964808 96.80908173 135.26953125 98.73828125 C138.81393825 102.81458341 142.47761371 106.76203659 146.1875 110.6875 C147.50950061 112.09208469 148.83111016 113.49703754 150.15234375 114.90234375 C150.80187012 115.59312012 151.45139648 116.28389648 152.12060547 116.99560547 C156.30038672 121.45338724 160.43840781 125.94973807 164.57373047 130.44873047 C166.02833204 132.0308151 167.48482293 133.6111462 168.94140625 135.19140625 C173.39846743 140.0331632 177.81465867 144.90152924 182.125 149.875 C184.54550506 152.61823907 187.02222956 155.30863584 189.5 158 C196.85783725 166.0028706 196.85783725 166.0028706 200.15625 169.8671875 C201.64830441 171.5931657 203.17054496 173.27057148 204.71875 174.9453125 C205.66729917 176.00464232 206.61521685 177.06453792 207.5625 178.125 C208.45066406 179.09695312 209.33882812 180.06890625 210.25390625 181.0703125 C212 184 212 184 211.375 187.0703125 C210.92125 188.03710938 210.4675 189.00390625 210 190 C209.73058594 190.81984375 209.46117187 191.6396875 209.18359375 192.484375 C208.93738281 193.23203125 208.69117188 193.9796875 208.4375 194.75 C208.18871094 195.50796875 207.93992187 196.2659375 207.68359375 197.046875 C207 199 207 199 206 201 C195.13394689 198.52850884 184.39047133 195.80105966 173.6875 192.6875 C172.22966898 192.26635251 170.77173871 191.84554849 169.3137207 191.42504883 C166.91911621 190.73408936 164.52470099 190.04250178 162.13078308 189.34916687 C156.1345868 187.61284741 150.1338287 185.89295038 144.13102722 184.17961121 C139.47274108 182.84958698 134.8156032 181.51556882 130.15859985 180.18106079 C127.86715564 179.52516231 125.57531305 178.87065378 123.28305054 178.21762085 C92.43408605 169.42366151 92.43408605 169.42366151 79.625 163.3125 C78.92076904 162.97710205 78.21653809 162.6417041 77.4909668 162.29614258 C56.6863253 152.13616773 33.37534971 136.75363404 23.0625 115.3125 C21.36698354 110.0264781 21.70489205 105.34232031 23 100 C22.50371094 99.64808594 22.00742188 99.29617187 21.49609375 98.93359375 C13.41209803 93.05850768 7.33063622 86.34690086 1.26733398 78.46679688 C-0.98008575 75.548649 -3.24264964 72.67741423 -5.68359375 69.91796875 C-15.89320257 58.30978338 -22.60312382 45.71908779 -22.25 29.9609375 C-21.33880481 19.16896952 -18.109002 10.59280828 -11.75 1.9375 C-7.84497177 -0.81376989 -4.65806406 -0.51415431 0 0 Z " fill="#FCC403" transform="translate(61,54)"/>
<path d="M0 0 C9.54338186 10.096273 11.28217046 22.33130596 11.07421875 35.66015625 C10.89090044 40.79872677 9.94709331 45.18009198 7.86328125 49.890625 C7.49589844 50.73367187 7.12851562 51.57671875 6.75 52.4453125 C3.18556817 59.70035074 -1.79154808 65.39204658 -7.1015625 71.390625 C-9.9172941 74.58939518 -12.479399 77.900281 -15.01171875 81.328125 C-20.18631703 88.32686225 -24.72813371 94.18902296 -32.13671875 98.890625 C-32.79671875 98.890625 -33.45671875 98.890625 -34.13671875 98.890625 C-33.78609375 99.509375 -33.43546875 100.128125 -33.07421875 100.765625 C-31.44491161 106.19664878 -31.9719031 111.20738894 -34.23046875 116.41015625 C-37.97164616 123.00917752 -42.91044854 128.43947225 -48.13671875 133.890625 C-48.75160156 134.56867188 -49.36648438 135.24671875 -50 135.9453125 C-60.05518883 146.66797639 -73.18280536 154.20363823 -86.13671875 160.890625 C-86.76868164 161.22271973 -87.40064453 161.55481445 -88.05175781 161.89697266 C-103.79271107 170.00949367 -121.16889918 174.14511922 -138.13671875 178.890625 C-140.40987115 179.52785063 -142.68298065 180.16522928 -144.95605469 180.80273438 C-146.15958084 181.14014648 -147.36310699 181.47755859 -148.60310364 181.82519531 C-151.11297434 182.52885054 -153.62281082 183.23262788 -156.13261414 183.93652344 C-162.39388151 185.69181531 -168.65640852 187.4422715 -174.92211914 189.18164062 C-186.21252317 192.32413537 -197.46881542 195.50742033 -208.60923767 199.1519165 C-213.94706668 200.890625 -213.94706668 200.890625 -216.13671875 200.890625 C-217.00600151 198.49934543 -217.85723476 196.10400774 -218.69921875 193.703125 C-218.94607422 193.02958984 -219.19292969 192.35605469 -219.44726562 191.66210938 C-220.81958045 187.69979191 -221.69874496 184.85937828 -220.13671875 180.890625 C-218.31640625 178.49609375 -218.31640625 178.49609375 -216.01171875 176.078125 C-215.19445312 175.20542969 -214.3771875 174.33273438 -213.53515625 173.43359375 C-212.74367188 172.59441406 -211.9521875 171.75523437 -211.13671875 170.890625 C-209.96246528 169.56396842 -208.79508511 168.23117574 -207.63671875 166.890625 C-204.24176936 162.99272015 -200.78005991 159.15715443 -197.31640625 155.3203125 C-195.44526781 153.2345632 -193.59747044 151.13244872 -191.76171875 149.015625 C-186.9926141 143.54485897 -182.05660962 138.22536833 -177.13671875 132.890625 C-176.65009766 132.36275391 -176.16347656 131.83488281 -175.66210938 131.29101562 C-172.66095526 128.03613118 -169.65736174 124.78350669 -166.65283203 121.53173828 C-164.14657771 118.81884914 -161.64171429 116.10467641 -159.13671875 113.390625 C-158.13672551 112.30728543 -157.13672551 111.22395209 -156.13671875 110.140625 C-155.64171875 109.604375 -155.14671875 109.068125 -154.63671875 108.515625 C-153.13671875 106.890625 -151.63671875 105.265625 -150.13671875 103.640625 C-149.64252441 103.1051001 -149.14833008 102.5695752 -148.63916016 102.01782227 C-147.63161591 100.92661616 -146.62347067 99.8359647 -145.61474609 98.74584961 C-143.22494875 96.16183796 -140.84694094 93.56964692 -138.48828125 90.95703125 C-132.34322777 84.16565879 -125.97566168 77.59943744 -119.52288818 71.10055542 C-118.11790844 69.6846543 -116.71732837 68.26439166 -115.31689453 66.84399414 C-109.97587736 61.49577366 -104.47562758 56.54826169 -98.55517578 51.84765625 C-96.30331078 50.02543236 -94.18224436 48.12584222 -92.07421875 46.140625 C-76.45521831 32.18027947 -22.17808777 -11.51476586 0 0 Z " fill="#F9AB0C" transform="translate(605.13671875,55.109375)"/>
<path d="M0 0 C3.55002629 1.4590218 5.26013523 3.27417414 7.5625 6.3125 C10.76326024 10.44136172 14.04675581 14.46535087 17.4375 18.4375 C20.81424146 22.40381289 24.1542633 26.39293305 27.4375 30.4375 C31.84913055 35.85570579 36.39323642 41.1527085 40.94921875 46.44921875 C48.06847652 54.72674153 55.09151377 63.07565901 61.984375 71.54296875 C64.60678793 74.73966978 67.29212706 77.87553122 70 81 C73.70016395 79.76661202 74.54703034 78.36179556 76.9375 75.3125 C80.54079241 70.79520171 84.22121014 66.37140008 88 62 C93.10063508 56.07979218 98.07989038 50.07143325 103 44 C107.77874199 38.11913374 112.59485154 32.27566354 117.5 26.5 C124.86631599 17.82275117 132.06693193 9.02859347 139 0 C142 1 142 1 143.28125 3.046875 C148.19533588 13.94606548 151.88736097 25.93661779 150 38 C148.52897025 41.51598399 146.49167136 44.13766678 144 47 C143.33484375 47.79921875 142.6696875 48.5984375 141.984375 49.421875 C139.73171867 52.03106687 137.39886453 54.52473851 135 57 C133.81664062 58.22203125 133.81664062 58.22203125 132.609375 59.46875 C118.53489691 73.11149563 100.22281011 81.75718933 82 88.4375 C81.30575928 88.69700439 80.61151855 88.95650879 79.89624023 89.22387695 C71.57337349 92.14627985 65.38912711 90.84487568 57.375 87.6875 C56.46274658 87.33139648 55.55049316 86.97529297 54.6105957 86.60839844 C31.21918695 77.21895987 2.8200046 62.63674346 -8.171875 38.41796875 C-12.12877879 26.86455628 -5.84162651 12.37988993 -1 2 C-0.67 1.34 -0.34 0.68 0 0 Z " fill="#FBB206" transform="translate(257,288)"/>
<path d="M0 0 C2.76658827 2.71002233 5.44169881 5.46059463 8.0234375 8.34765625 C24.09660392 26.24496703 54.15060259 53.61880819 79.26171875 56.35546875 C84.01532689 55.90345376 87.50506692 54.3512463 91.75 52.25 C92.57129395 51.85095459 93.39258789 51.45190918 94.23876953 51.04077148 C117.22640972 39.58194685 137.63934087 23.85718312 154.66259766 4.65673828 C155.75821914 3.42266142 156.87675528 2.2089886 158 1 C158.33 1 158.66 1 159 1 C159.39515993 8.77147854 158.03117363 15.51157675 156 23 C155.74259033 23.95084473 155.74259033 23.95084473 155.47998047 24.92089844 C151.75764297 38.39316553 147.246708 51.973037 136 61 C134.6078125 62.12921875 134.6078125 62.12921875 133.1875 63.28125 C120.21897053 73.3276341 104.92521765 81.15538269 89.5625 86.8125 C88.90789795 87.0609668 88.2532959 87.30943359 87.57885742 87.56542969 C79.2449103 90.39838959 72.28919837 87.68689317 64.5625 84.5 C63.26131226 83.96922852 63.26131226 83.96922852 61.93383789 83.42773438 C49.06243836 78.0635748 36.89726164 71.7726383 26 63 C25.13890625 62.360625 24.2778125 61.72125 23.390625 61.0625 C8.19966205 48.90972964 3.18704695 26.37341274 0 8 C-0.14250259 5.30602254 -0.0981898 2.70021952 0 0 Z " fill="#FBB207" transform="translate(248,363)"/>
<path d="M0 0 C18.44783459 16.77075872 28.63779245 45.41879307 30.18017578 69.85449219 C30.31759237 72.92494024 30.39303602 75.98935481 30.4375 79.0625 C30.47109619 80.50822388 30.47109619 80.50822388 30.50537109 81.9831543 C30.48028203 89.56071212 28.88180726 94.804733 23.7734375 100.46875 C22.98195313 101.1390625 22.19046875 101.809375 21.375 102.5 C20.49585938 103.2528125 19.61671875 104.005625 18.7109375 104.78125 C15.33344215 107.54554015 11.92625914 110.26912365 8.5 112.97265625 C5.05216155 115.76863774 1.77329677 118.72945015 -1.5 121.7265625 C-3.14608499 123.22347103 -4.81256677 124.69829957 -6.5 126.1484375 C-22.18863717 139.72891405 -32.4445048 156.38739964 -40.40625 175.33203125 C-42 179 -42 179 -44 182 C-47.14410577 176.69517383 -45.74780927 171.36040876 -44.45996094 165.57324219 C-43.82069981 163.15325366 -43.1177161 160.76523011 -42.375 158.375 C-42.10848633 157.51036133 -41.84197266 156.64572266 -41.56738281 155.75488281 C-33.14751564 129.18487223 -17.186624 106.14026495 3 87 C3.66 86.67 4.32 86.34 5 86 C9.10723135 60.38246087 5.99109245 31.89978025 -3.26953125 7.6796875 C-3.51058594 6.79539062 -3.75164062 5.91109375 -4 5 C-2.125 2.125 -2.125 2.125 0 0 Z " fill="#313231" transform="translate(402,33)"/>
<path d="M0 0 C2.475 2.475 2.475 2.475 5 5 C4.8131665 5.53367187 4.62633301 6.06734375 4.43383789 6.6171875 C-3.38543706 29.43594885 -5.82769075 51.98473633 -5 76 C-4.95286865 77.53575684 -4.95286865 77.53575684 -4.90478516 79.10253906 C-4.84983887 80.0922168 -4.79489258 81.08189453 -4.73828125 82.1015625 C-4.69356689 82.99439941 -4.64885254 83.88723633 -4.6027832 84.80712891 C-4.22248474 87.16111424 -4.22248474 87.16111424 -2.09082031 88.18798828 C-1.40084961 88.45595215 -0.71087891 88.72391602 0 89 C8.10177443 95.98976617 14.68870684 104.41481855 21 113 C21.43344727 113.58910156 21.86689453 114.17820312 22.31347656 114.78515625 C32.94246106 129.45138201 40.29061702 145.54178527 45 163 C45.25652344 163.89460937 45.51304687 164.78921875 45.77734375 165.7109375 C47.10357421 170.79048683 47.10394166 174.84827225 46 180 C45.34 180.33 44.68 180.66 44 181 C43.23816406 179.24236328 43.23816406 179.24236328 42.4609375 177.44921875 C34.80608324 159.91369689 26.25068444 144.99983974 13 131 C12.02933594 129.96746094 12.02933594 129.96746094 11.0390625 128.9140625 C6.5461215 124.27441323 1.6981476 120.20511387 -3.33203125 116.16015625 C-6.32238666 113.73897537 -9.22040164 111.23332451 -12.09765625 108.6796875 C-13.40556494 107.52486052 -14.72674997 106.38495164 -16.05859375 105.2578125 C-28.59915987 94.59003414 -28.59915987 94.59003414 -29.17700195 87.97314453 C-30.01841738 55.83845029 -21.41647271 26.10734718 -1 1 C-0.67 0.67 -0.34 0.34 0 0 Z " fill="#313231" transform="translate(253,33)"/>
<path d="M0 0 C3.71964033 2.94660994 5.64633695 5.61970178 6.37890625 10.296875 C6.73365588 21.29411346 2.62275812 28.974265 -4.52734375 37.140625 C-7.83276176 40.61383073 -11.22844053 43.78089175 -15.02734375 46.703125 C-14.40859375 44.8778125 -14.40859375 44.8778125 -13.77734375 43.015625 C-13.50792969 42.19578125 -13.23851562 41.3759375 -12.9609375 40.53125 C-12.30239511 38.53633499 -11.62622005 36.54719864 -10.9375 34.5625 C-8.01374216 25.78082164 -6.07153366 17.42185427 -9.8515625 8.58984375 C-13.42796413 2.85096672 -18.55254881 -0.63506322 -25.02734375 -2.296875 C-33.60375369 -3.06119754 -42.7604927 -3.59594336 -50.02734375 1.703125 C-55.14430716 6.38719996 -58.0108679 11.03138116 -58.46484375 18.015625 C-58.33989152 25.56955547 -55.46599583 32.63842383 -53.02734375 39.703125 C-52.35933224 41.70267622 -51.6921462 43.70250456 -51.02734375 45.703125 C-60.86245331 37.75133429 -70.75488859 28.55534968 -72.30078125 15.37109375 C-72.51876642 10.0472251 -72.18711456 6.37930847 -68.6875 2.2265625 C-65.46919879 -0.72670214 -62.01676502 -2.56234401 -58.02734375 -4.296875 C-57.13660156 -4.69132813 -56.24585938 -5.08578125 -55.328125 -5.4921875 C-38.17804129 -11.90385278 -15.49457352 -9.9117503 0 0 Z " fill="#F9AD0B" transform="translate(361.02734375,227.296875)"/>
<path d="M0 0 C11.08072748 6.55798157 13.40013247 22.84752733 16.39697266 34.453125 C17.68904579 39.91017236 18.45601109 45.41942406 19 51 C15.49506516 51.32592384 13.64391886 51.47760125 10.76171875 49.33984375 C1.20358686 38.269691 -11.56809544 21.16885297 -11.34375 5.94140625 C-11 4 -11 4 -8.875 1.5 C-5.44315756 -0.29052649 -3.81420233 -0.70056777 0 0 Z " fill="#F8F9F9" transform="translate(285,269)"/>
<path d="M0 0 C1.28583984 -0.01546875 1.28583984 -0.01546875 2.59765625 -0.03125 C4.9375 0.5 4.9375 0.5 6.74609375 2.3125 C8.6511462 5.81030123 7.90056726 8.8173277 6.9375 12.5 C2.86325637 25.2343801 -5.59691863 40.8681316 -16.0625 49.5 C-19.5625 50.5625 -19.5625 50.5625 -22.0625 50.5 C-22.42190795 44.17967972 -21.11774654 38.65346171 -19.5 32.5625 C-19.2333252 31.5521167 -18.96665039 30.5417334 -18.69189453 29.50073242 C-16.98184149 23.2643302 -15.0161626 17.24447936 -12.4375 11.3125 C-12.16091553 10.67256104 -11.88433105 10.03262207 -11.59936523 9.37329102 C-8.97477794 3.68112519 -6.60822576 -0.07973726 0 0 Z " fill="#F9F9FA" transform="translate(374.0625,269.5)"/>
<path d="M0 0 C0.33 0 0.66 0 1 0 C1.29826419 6.34357005 0.33679315 11.46268745 -1.5625 17.5 C-1.83570068 18.38018799 -2.10890137 19.26037598 -2.39038086 20.16723633 C-7.22086189 35.3171943 -14.50791959 49.08244071 -21.9140625 63.1171875 C-22.94332797 65.07779983 -23.97199569 67.03872611 -25 69 C-25.48911865 69.92441895 -25.9782373 70.84883789 -26.48217773 71.80126953 C-26.93278564 72.67122559 -27.38339355 73.54118164 -27.84765625 74.4375 C-28.24476807 75.19675781 -28.64187988 75.95601563 -29.05102539 76.73828125 C-30.61381898 80.46293261 -30.80580843 83.98670759 -31 88 C-32.5 87 -32.5 87 -34 85 C-34.3843708 79.2670443 -33.60887712 74.76776825 -31.5859375 69.37890625 C-31.333815 68.67587875 -31.0816925 67.97285126 -30.82192993 67.2485199 C-30.01810694 65.01535411 -29.1971108 62.78898946 -28.375 60.5625 C-27.84647551 59.1052454 -27.31912357 57.64756499 -26.79296875 56.18945312 C-25.73689952 53.26566034 -24.67213326 50.34522788 -23.6027832 47.42626953 C-22.5124116 44.43670802 -21.4535064 41.43843965 -20.41870117 38.42919922 C-17.88255075 31.06054686 -15.35967789 23.83404929 -11.5625 17 C-11.18416016 16.30140869 -10.80582031 15.60281738 -10.41601562 14.88305664 C-7.46520178 9.55609374 -4.22996777 4.41880562 0 0 Z " fill="#F6A71E" transform="translate(206,356)"/>
<path d="M0 0 C3.97468317 1.32489439 5.1292917 3.79363291 7.25 7.1875 C7.60707031 7.73341797 7.96414063 8.27933594 8.33203125 8.84179688 C16.21192598 21.23821663 21.14981352 34.39278138 25.75 48.25 C26.31811875 49.93259299 26.8871255 51.61488643 27.45703125 53.296875 C36.15354485 79.04876871 36.15354485 79.04876871 35 86 C34.34 86.66 33.68 87.32 33 88 C32 87 32 87 31.88671875 84.796875 C31.20790863 74.41507314 26.39240587 67.15013795 21.171875 58.3984375 C10.6738209 40.76547836 1.87376883 20.61145712 0 0 Z " fill="#F6A224" transform="translate(448,356)"/>
<path d="M0 0 C1.18851562 0.00902344 2.37703125 0.01804688 3.6015625 0.02734375 C4.51679688 0.03894531 5.43203125 0.05054688 6.375 0.0625 C6.375 0.7225 6.375 1.3825 6.375 2.0625 C5.385 2.0625 4.395 2.0625 3.375 2.0625 C3.11589844 2.66449219 2.85679687 3.26648438 2.58984375 3.88671875 C1.2770328 6.23795895 0.07706271 7.27838009 -2.0625 8.875 C-6.23388191 12.35984197 -8.07417319 15.72659379 -8.97265625 21.16796875 C-9.51870785 29.5267587 -6.30924808 37.28631466 -3.625 45.0625 C-2.95698849 47.06205122 -2.28980245 49.06187956 -1.625 51.0625 C-11.46010956 43.11070929 -21.35254484 33.91472468 -22.8984375 20.73046875 C-23.11611974 15.41399864 -22.76679221 11.77741553 -19.328125 7.59765625 C-16.15236588 4.73510273 -12.4634586 2.8874646 -8.625 1.0625 C-5.74084117 -0.37957941 -3.20778472 -0.03144887 0 0 Z " fill="#F9B90C" transform="translate(311.625,221.9375)"/>
<path d="M0 0 C-3.25293578 8.22371404 -14.12540734 13.00433992 -21.69140625 16.625 C-28.98522791 19.65619861 -36.58616917 21.73890548 -44.171875 23.90625 C-45.50992188 24.29296875 -45.50992188 24.29296875 -46.875 24.6875 C-47.63554687 24.89761719 -48.39609375 25.10773438 -49.1796875 25.32421875 C-51.21310092 25.93523315 -51.21310092 25.93523315 -53 28 C-53.70710678 29.64991582 -54.37943989 31.31562256 -55 33 C-55.33 33 -55.66 33 -56 33 C-56 29.19389888 -55.97725113 26.38647504 -53.75 23.2265625 C-42.31374626 12.3519105 -25.62361169 6.96299131 -11 2 C-9.88753906 1.60941406 -8.77507812 1.21882813 -7.62890625 0.81640625 C-4.93657803 -0.01969568 -2.80065711 -0.16474454 0 0 Z " fill="#FBA71A" transform="translate(211,302)"/>
<path d="M0 0 C13.36566569 2.12153424 25.61855278 7.09353401 37.6875 13.0625 C38.52458496 13.47371094 39.36166992 13.88492187 40.22412109 14.30859375 C45.60916517 17.04634536 50.874903 19.90894982 54.375 25 C55.12860024 27.41152078 55.13952346 29.48857781 55 32 C54.566875 31.401875 54.13375 30.80375 53.6875 30.1875 C51.031855 26.74499723 49.28681391 24.78156072 44.97265625 23.7890625 C43.79316406 23.50409912 43.79316406 23.50409912 42.58984375 23.21337891 C41.33880859 22.92213135 41.33880859 22.92213135 40.0625 22.625 C24.88137119 18.83829148 11.45612253 12.94696153 0 2 C0 1.34 0 0.68 0 0 Z " fill="#F5A423" transform="translate(445,302)"/>
<path d="M0 0 C3.88889425 1.29629808 4.166712 2.6003561 6.08203125 6.16015625 C6.67725586 7.25191162 7.27248047 8.34366699 7.88574219 9.46850586 C8.19942749 10.05373016 8.51311279 10.63895447 8.83630371 11.24191284 C10.49802247 14.34098611 12.19017227 17.4234032 13.87890625 20.5078125 C14.22291473 21.13797775 14.56692322 21.76814301 14.9213562 22.41740417 C18.24727457 28.49312638 21.7315201 34.47144593 25.25 40.4375 C30.18899892 48.83038813 34.98017669 57.28862218 39.62597656 65.84741211 C40.04331055 66.61577393 40.46064453 67.38413574 40.890625 68.17578125 C41.25188477 68.84520752 41.61314453 69.51463379 41.98535156 70.2043457 C42.91423657 71.84822185 43.95263611 73.42895416 45 75 C42.28125 74.90625 42.28125 74.90625 39 74 C37.16960203 71.8185668 35.883884 69.94514106 34.5 67.5 C34.08621094 66.80438965 33.67242187 66.1087793 33.24609375 65.39208984 C31.80354808 62.94281131 30.399307 60.4742292 29 58 C28.45214844 57.03739258 27.90429688 56.07478516 27.33984375 55.08300781 C23.73976764 48.7426053 20.18922376 42.37575688 16.66015625 35.99560547 C15.14649767 33.26434212 13.62301839 30.53895127 12.09375 27.81640625 C8.42210153 21.27398805 4.78161218 14.71493938 1.3125 8.0625 C0.59513672 6.68771484 0.59513672 6.68771484 -0.13671875 5.28515625 C-1 3 -1 3 0 0 Z " fill="#EDA318" transform="translate(226,452)"/>
<path d="M0 0 C27.21885746 -1.36854591 50.68526428 12.98002824 73.2578125 26.57421875 C75.90409819 27.95013652 78.06129856 28.59633222 81 29 C80.65555119 26.52733235 80.65555119 26.52733235 80 24 C79.34 23.67 78.68 23.34 78 23 C77.505 21.515 77.505 21.515 77 20 C75.70644173 18.62804426 74.37701298 17.28817344 73 16 C76.53001971 17.10313116 79.06627069 18.74049133 81.9375 21 C85.63751001 23.86768262 89.17487287 26 94 26 C94.495 27.98 94.495 27.98 95 30 C94.34 30 93.68 30 93 30 C92.67 31.65 92.34 33.3 92 35 C97.445 35.495 97.445 35.495 103 36 C103.33 34.35 103.66 32.7 104 31 C104.33 30.34 104.66 29.68 105 29 C107.125 31.125 107.125 31.125 109 34 C108.01 36.97 108.01 36.97 107 40 C101.39 39.67 95.78 39.34 90 39 C90 38.34 90 37.68 90 37 C89.030625 36.71125 88.06125 36.4225 87.0625 36.125 C84 35 84 35 83 33 C81.14513554 32.25172278 81.14513554 32.25172278 78.921875 31.65625 C74.23821582 30.17758885 70.39687735 28.09211757 66.25 25.5 C44.47907834 12.36977301 25.27575175 4.18536626 0 1 C0 0.67 0 0.34 0 0 Z " fill="#A57B10" transform="translate(164,204)"/>
<path d="M0 0 C0.66 0 1.32 0 2 0 C1.58786048 6.67666017 -1.04422998 11.60908436 -4.1875 17.4375 C-4.71778809 18.43668457 -5.24807617 19.43586914 -5.79443359 20.46533203 C-11.37524564 30.88165711 -17.33646253 41.07183142 -23.36767578 51.23193359 C-24.91025081 53.84780491 -26.42720033 56.47644636 -27.93359375 59.11328125 C-28.38138184 59.89203613 -28.82916992 60.67079102 -29.29052734 61.47314453 C-30.1052045 62.89140207 -30.91462954 64.31269744 -31.71728516 65.73779297 C-34.02683477 69.72794776 -36.457987 72.96064891 -40 76 C-42.3125 75.8125 -42.3125 75.8125 -44 75 C-42.95392578 73.86498047 -42.95392578 73.86498047 -41.88671875 72.70703125 C-38.09717266 68.15291593 -35.55242324 62.91160395 -32.8125 57.6875 C-28.99753037 50.52690522 -25.16167133 43.40321375 -21 36.4375 C-16.32812686 28.61512221 -11.84179402 20.69387454 -7.37695312 12.75170898 C-6.58901367 11.35094116 -6.58901367 11.35094116 -5.78515625 9.921875 C-5.08724976 8.67809082 -5.08724976 8.67809082 -4.37524414 7.40917969 C-3.92141357 6.61415039 -3.46758301 5.81912109 -3 5 C-2.23320923 3.61022949 -2.23320923 3.61022949 -1.45092773 2.19238281 C-0.73271851 1.10715332 -0.73271851 1.10715332 0 0 Z " fill="#F0AA26" transform="translate(428,451)"/>
<path d="M0 0 C1.80676269 2.71014404 2.80682198 4.89977688 3.91015625 7.9296875 C4.26013672 8.89003906 4.61011719 9.85039062 4.97070312 10.83984375 C5.33099609 11.84144531 5.69128906 12.84304688 6.0625 13.875 C6.42666016 14.86886719 6.79082031 15.86273438 7.16601562 16.88671875 C9.32201258 22.84061791 11.13328229 28.30065372 11.1875 34.6875 C11.20167969 35.45449219 11.21585937 36.22148437 11.23046875 37.01171875 C11 39 11 39 9 41 C8 40 8 40 7.88671875 37.796875 C7.13575526 26.31155107 1.12227235 17.63416939 -4.81665039 8.06201172 C-6 6 -6 6 -7 3 C-5.68 3.33 -4.36 3.66 -3 4 C-2.01 2.68 -1.02 1.36 0 0 Z " fill="#EC9E29" transform="translate(472,403)"/>
<path d="M0 0 C0.99 0.33 1.98 0.66 3 1 C5.00212229 0.67966043 7.00239695 0.34740923 9 0 C9.33 0.33 9.66 0.66 10 1 C10.99 0.67 11.98 0.34 13 0 C13 0.66 13 1.32 13 2 C14.65 2.66 16.3 3.32 18 4 C15.64046906 6.35953094 14.22104383 6.49141413 11 7 C11 7.66 11 8.32 11 9 C4.565 10.98 4.565 10.98 -2 13 C-4.38297872 7.04255319 -4.38297872 7.04255319 -3 3 C-1.4375 1.1875 -1.4375 1.1875 0 0 Z " fill="#F9AE15" transform="translate(388,233)"/>
<path d="M0 0 C0.99 0.495 0.99 0.495 2 1 C-2.86453561 6.89598442 -8.02390412 11.86427917 -14.0078125 16.61328125 C-17.25027345 19.19963065 -20.40851277 21.86984639 -23.5625 24.5625 C-28.01953409 28.35217763 -32.53074643 32.05467539 -37.1171875 35.6875 C-41.82363777 39.4628639 -46.46538205 43.3170187 -51.11230469 47.1652832 C-51.81516602 47.74624756 -52.51802734 48.32721191 -53.2421875 48.92578125 C-53.8697998 49.44567627 -54.49741211 49.96557129 -55.14404297 50.5012207 C-57.06180828 52.04991332 -59.01955465 53.53260778 -61 55 C-61.66 54.67 -62.32 54.34 -63 54 C-55.66261832 47.6694999 -48.30084297 41.38673446 -40.77734375 35.27734375 C-37.09205684 32.25551215 -33.46231343 29.17052495 -29.83349609 26.08129883 C-26.45129688 23.20808106 -23.02523178 20.40128715 -19.5625 17.625 C-12.73911924 12.08352657 -6.38679867 6.03249451 0 0 Z " fill="#513A08" transform="translate(489,160)"/>
<path d="M0 0 C-1.51723253 3.96609908 -3.88694345 5.65673024 -7.3125 8.0625 C-8.25738281 8.73410156 -9.20226562 9.40570313 -10.17578125 10.09765625 C-17.45379877 15 -17.45379877 15 -20 15 C-20 14.01 -20 13.02 -20 12 C-18.68 12 -17.36 12 -16 12 C-16 11.34 -16 10.68 -16 10 C-15.34 10 -14.68 10 -14 10 C-14.33 8.68 -14.66 7.36 -15 6 C-19.62 7.65 -24.24 9.3 -29 11 C-29.33 10.34 -29.66 9.68 -30 9 C-26.95891001 7.8734369 -23.91702595 6.74903305 -20.875 5.625 C-20.0190625 5.30789063 -19.163125 4.99078125 -18.28125 4.6640625 C-4.87306752 -0.28665103 -4.87306752 -0.28665103 0 0 Z " fill="#F0A127" transform="translate(211,302)"/>
<path d="M0 0 C0 0.99 0 1.98 0 3 C-1.28913487 3.67154933 -2.58140204 4.33708859 -3.875 5 C-4.59429687 5.37125 -5.31359375 5.7425 -6.0546875 6.125 C-8 7 -8 7 -10 7 C-10 7.99 -10 8.98 -10 10 C-9.32453125 9.84402344 -8.6490625 9.68804687 -7.953125 9.52734375 C-7.06109375 9.33269531 -6.1690625 9.13804687 -5.25 8.9375 C-4.36828125 8.74027344 -3.4865625 8.54304688 -2.578125 8.33984375 C-0.01320972 8.00174128 1.57091639 8.18841365 4 9 C2.04181389 9.60464367 0.08344174 10.20868482 -1.875 10.8125 C-3.05449219 11.17730469 -4.23398438 11.54210937 -5.44921875 11.91796875 C-9.30984201 13.0944183 -13.18608866 14.20725871 -17.07421875 15.2890625 C-19.20030486 15.92133099 -19.20030486 15.92133099 -21 18 C-21.70710678 19.64991582 -22.37943989 21.31562256 -23 23 C-23.33 23 -23.66 23 -24 23 C-24 19.1431214 -23.99125684 16.35784591 -21.6796875 13.19140625 C-15.46985136 7.37136502 -7.54252466 3.78108333 0 0 Z " fill="#EBAB36" transform="translate(179,312)"/>
<path d="M0 0 C9.4017094 7.47863248 9.4017094 7.47863248 10.875 13.6875 C10.91625 14.780625 10.9575 15.87375 11 17 C9 19 9 19 6.46875 19.046875 C5.4890625 18.94890625 4.509375 18.8509375 3.5 18.75 C2.5203125 18.66234375 1.540625 18.5746875 0.53125 18.484375 C-2 18 -2 18 -4 16 C-3.34 16 -2.68 16 -2 16 C-1.67 14.68 -1.34 13.36 -1 12 C0.98 11.67 2.96 11.34 5 11 C5 9.68 5 8.36 5 7 C4.360625 6.773125 3.72125 6.54625 3.0625 6.3125 C1 5 1 5 0.25 2.375 C0.1675 1.59125 0.085 0.8075 0 0 Z " fill="#F4B40D" transform="translate(258,222)"/>
<path d="M0 0 C3.96 1.65 7.92 3.3 12 5 C12 5.66 12 6.32 12 7 C11.34 7 10.68 7 10 7 C10 8.32 10 9.64 10 11 C10.99 11 11.98 11 13 11 C13 11.66 13 12.32 13 13 C14.65 13.66 16.3 14.32 18 15 C17.01 15.495 17.01 15.495 16 16 C13.89282227 15.22729492 13.89282227 15.22729492 11.31640625 13.98046875 C10.38892578 13.53509766 9.46144531 13.08972656 8.50585938 12.63085938 C7.53455078 12.15455078 6.56324219 11.67824219 5.5625 11.1875 C4.11133789 10.49043945 4.11133789 10.49043945 2.63085938 9.77929688 C-1.05996649 7.99407437 -4.58424493 6.27717004 -8 4 C-5.36 4.33 -2.72 4.66 0 5 C0 3.35 0 1.7 0 0 Z " fill="#39362F" transform="translate(472,303)"/>
<path d="M0 0 C3.65726061 1.52455283 5.84997926 3.70697981 8.5625 6.5625 C12.79257186 10.87889985 17.19660468 14.71864119 21.91015625 18.4921875 C25.70740475 21.57415152 29.42200374 24.74335264 33.125 27.9375 C33.78910889 28.50573486 34.45321777 29.07396973 35.13745117 29.65942383 C35.75467041 30.1933374 36.37188965 30.72725098 37.0078125 31.27734375 C37.83756592 31.99265259 37.83756592 31.99265259 38.68408203 32.72241211 C40 34 40 34 41 36 C37.57326304 34.47260916 34.94158718 32.45668829 32.0625 30.0625 C30.61617187 28.86173828 30.61617187 28.86173828 29.140625 27.63671875 C28.09320517 26.75846186 27.04634767 25.87953398 26 25 C25.45537109 24.54318848 24.91074219 24.08637695 24.34960938 23.61572266 C20.55206166 20.42715305 16.77349422 17.21698925 13 14 C12.19949219 13.32582031 11.39898437 12.65164062 10.57421875 11.95703125 C6.60564155 8.57140889 3.16599759 5.15537183 0 1 C0 0.67 0 0.34 0 0 Z " fill="#59390A" transform="translate(166,160)"/>
<path d="M0 0 C6.21708575 0.63439651 11.07938046 2.51305844 16.5703125 5.30859375 C24.40897537 9.16242104 30.47687095 10.19951718 39 8 C39 7.34 39 6.68 39 6 C40.98 6 42.96 6 45 6 C45 5.34 45 4.68 45 4 C46.98 4 48.96 4 51 4 C48.12882342 6.87117658 44.62134454 7.83359147 40.875 9.1875 C40.14023437 9.47302734 39.40546875 9.75855469 38.6484375 10.05273438 C29.40773189 13.39598262 22.4624843 10.73150315 13.75 7.125 C12.86570312 6.77308594 11.98140625 6.42117188 11.0703125 6.05859375 C6.95357134 4.38577899 3.49253765 2.79145187 0 0 Z " fill="#DEA825" transform="translate(298,440)"/>
<path d="M0 0 C1.01320313 0.00902344 2.02640625 0.01804688 3.0703125 0.02734375 C5.54712801 0.05070993 8.02343379 0.08346832 10.5 0.125 C10.5 0.455 10.5 0.785 10.5 1.125 C2.58 1.62 2.58 1.62 -5.5 2.125 C-3.56125 2.24875 -1.6225 2.3725 0.375 2.5 C6.25 2.875 6.25 2.875 8.5 5.125 C6.85451172 5.21587891 6.85451172 5.21587891 5.17578125 5.30859375 C3.72134346 5.39304498 2.26691695 5.47769066 0.8125 5.5625 C0.09126953 5.60181641 -0.62996094 5.64113281 -1.37304688 5.68164062 C-5.16707282 5.90685678 -8.78651492 6.25339305 -12.5 7.125 C-12.5 6.465 -12.5 5.805 -12.5 5.125 C-11.51 5.125 -10.52 5.125 -9.5 5.125 C-9.5 4.465 -9.5 3.805 -9.5 3.125 C-12.8 3.455 -16.1 3.785 -19.5 4.125 C-19.5 3.465 -19.5 2.805 -19.5 2.125 C-12.88384194 0.12439983 -6.88496734 -0.11746007 0 0 Z " fill="#E4AA21" transform="translate(327.5,218.875)"/>
<path d="M0 0 C0.93423645 3.01031744 1.04449911 3.86650268 0 7 C0.99 7 1.98 7 3 7 C1.8947206 9.80570925 0.74530371 12.52976828 -0.5625 15.25 C-2.36565394 19.37539764 -2.70700318 23.5444276 -3 28 C-4.5 27 -4.5 27 -6 25 C-6.65430688 18.67503354 -5.25656069 13.86502486 -3 8 C-2.71382812 7.22527344 -2.42765625 6.45054687 -2.1328125 5.65234375 C-1.43339693 3.76392172 -0.71831936 1.88131262 0 0 Z " fill="#E9A32E" transform="translate(178,416)"/>
<path d="M0 0 C3.40517714 1.13505905 3.62023775 1.5528188 5.296875 4.52734375 C5.69777344 5.23697266 6.09867188 5.94660156 6.51171875 6.67773438 C7.12466797 7.79631836 7.12466797 7.79631836 7.75 8.9375 C8.17410156 9.67935547 8.59820312 10.42121094 9.03515625 11.18554688 C11.33069396 15.3092897 11.33069396 15.3092897 12 17 C11.67 17.66 11.34 18.32 11 19 C10.34 18.01 9.68 17.02 9 16 C9 17.65 9 19.3 9 21 C6.22414395 17.58158468 4.22516338 13.85124966 2.25 9.9375 C1.92128906 9.31294922 1.59257812 8.68839844 1.25390625 8.04492188 C0.42250228 6.40140812 -0.29674412 4.70229292 -1 3 C-0.67 2.01 -0.34 1.02 0 0 Z " fill="#E9A420" transform="translate(226,452)"/>
<path d="M0 0 C5.06508933 2.2006092 9.12557272 4.05598508 12 9 C12.75 12.8125 12.75 12.8125 13 16 C12.566875 15.401875 12.13375 14.80375 11.6875 14.1875 C8.19884587 9.66517057 6.05895225 8.5073069 0.3125 7.3125 C-0.86699219 7.06113281 -2.04648437 6.80976563 -3.26171875 6.55078125 C-4.16535156 6.36902344 -5.06898438 6.18726563 -6 6 C-6 5.67 -6 5.34 -6 5 C-4.865625 4.87625 -3.73125 4.7525 -2.5625 4.625 C-0.7990625 4.315625 -0.7990625 4.315625 1 4 C1.33 3.34 1.66 2.68 2 2 C1.34 2 0.68 2 0 2 C0 1.34 0 0.68 0 0 Z " fill="#E4A032" transform="translate(487,318)"/>
<path d="M0 0 C4.03321763 1.21934486 7.54269479 2.55954927 11 5 C11 5.66 11 6.32 11 7 C11.66 7 12.32 7 13 7 C12.67 7.99 12.34 8.98 12 10 C10.741875 10.04125 9.48375 10.0825 8.1875 10.125 C7.47980469 10.14820313 6.77210938 10.17140625 6.04296875 10.1953125 C4 10 4 10 1 8 C1.66 6.02 2.32 4.04 3 2 C2.01 2 1.02 2 0 2 C0 1.34 0 0.68 0 0 Z " fill="#F8A822" transform="translate(476,313)"/>
<path d="M0 0 C0.99 0.33 1.98 0.66 3 1 C-4.25952771 7.23451134 -11.59248001 13.33857899 -19.15283203 19.20629883 C-22.83363291 22.06486241 -26.43416438 24.99888948 -30 28 C-30.66 27.67 -31.32 27.34 -32 27 C-24.54410727 20.56725167 -17.07379403 14.16946116 -9.41015625 7.984375 C-7.21071941 6.17349345 -5.10627546 4.29219436 -3 2.375 C-2.01 1.59125 -1.02 0.8075 0 0 Z " fill="#683F06" transform="translate(458,187)"/>
<path d="M0 0 C5.33824748 5.33824748 5.32287791 14.39176412 5.375 21.5625 C5.34179975 28.09284458 4.51426857 33.90888507 2 40 C0.875 36.25 0.875 36.25 2 34 C2.24310174 29.85909887 2.18519981 25.7097363 2.1875 21.5625 C2.19974609 20.40427734 2.21199219 19.24605469 2.22460938 18.05273438 C2.22654297 16.94349609 2.22847656 15.83425781 2.23046875 14.69140625 C2.23457764 13.67248291 2.23868652 12.65355957 2.24291992 11.60375977 C2.18594162 8.76431763 2.18594162 8.76431763 0 6 C-0.125 2.8125 -0.125 2.8125 0 0 Z " fill="#E9A628" transform="translate(611,65)"/>
<path d="M0 0 C0.33 1.32 0.66 2.64 1 4 C0.154375 4.66 -0.69125 5.32 -1.5625 6 C-4.87389355 8.74641645 -7.61247903 11.85474534 -10.38671875 15.1328125 C-13.74141243 19.0154846 -15.95851098 20.54356984 -21 22 C-18.18161381 19.17624546 -15.35567119 16.36061453 -12.51953125 13.5546875 C-11.28381542 12.32816403 -10.04813899 11.10160088 -8.8125 9.875 C-8.18408203 9.25496094 -7.55566406 8.63492188 -6.90820312 7.99609375 C-6.30556641 7.39667969 -5.70292969 6.79726562 -5.08203125 6.1796875 C-4.53780518 5.64069824 -3.9935791 5.10170898 -3.43286133 4.54638672 C-1.78647068 2.85156126 -1.78647068 2.85156126 0 0 Z " fill="#443418" transform="translate(565,179)"/>
<path d="M0 0 C4.99914466 0.61116304 9.61780231 1.63843968 14.46484375 3.06640625 C15.48210289 3.36393044 15.48210289 3.36393044 16.51991272 3.66746521 C18.66046268 4.29463852 20.79897975 4.92844454 22.9375 5.5625 C24.39895867 5.99197865 25.86054613 6.42101929 27.32226562 6.84960938 C30.88301255 7.8946832 34.4419695 8.94570992 38 10 C34.58655935 11.15868634 32.47325154 10.82289633 29.04296875 9.8203125 C28.09486328 9.55089844 27.14675781 9.28148437 26.16992188 9.00390625 C25.18572266 8.71386719 24.20152344 8.42382812 23.1875 8.125 C17.13361858 6.36780977 11.27791068 4.68295263 5 4 C5 3.34 5 2.68 5 2 C3.35 1.67 1.7 1.34 0 1 C0 0.67 0 0.34 0 0 Z " fill="#3A2E14" transform="translate(156,224)"/>
<path d="M0 0 C4.79077635 -0.28773432 8.00617556 0.55830025 12.375 2.5 C13.43460937 2.9640625 14.49421875 3.428125 15.5859375 3.90625 C16.38257813 4.2671875 17.17921875 4.628125 18 5 C14.06329512 6.31223496 11.87511856 5.24296256 8 4 C6.66695302 6.89186786 6.66695302 6.89186786 7.9375 9.1875 C8.288125 9.785625 8.63875 10.38375 9 11 C7.66144944 10.21718695 6.32926356 9.42348123 5 8.625 C4.2575 8.18414062 3.515 7.74328125 2.75 7.2890625 C1.88375 6.65097656 1.88375 6.65097656 1 6 C1 5.34 1 4.68 1 4 C1.99 3.34 2.98 2.68 4 2 C2.68 1.34 1.36 0.68 0 0 Z " fill="#ECAB22" transform="translate(339,220)"/>
<path d="M0 0 C0.33 0.66 0.66 1.32 1 2 C1.66 2 2.32 2 3 2 C1.14317911 6.99913315 -0.47851719 10.98567812 -5 14 C-7.1875 13.625 -7.1875 13.625 -9 13 C-8.2575 12.154375 -7.515 11.30875 -6.75 10.4375 C-4.01513813 7.17280734 -2.02098414 3.74256322 0 0 Z " fill="#EFAC2D" transform="translate(393,513)"/>
<path d="M0 0 C10.21428571 8.125 10.21428571 8.125 11 15 C8.36 14.34 5.72 13.68 3 13 C3.33 12.38125 3.66 11.7625 4 11.125 C5.14193235 9.08981656 5.14193235 9.08981656 5 7 C4.360625 6.773125 3.72125 6.54625 3.0625 6.3125 C1 5 1 5 0.25 2.375 C0.1675 1.59125 0.085 0.8075 0 0 Z " fill="#F6BE19" transform="translate(258,222)"/>
<path d="M0 0 C0.94875 0.04125 1.8975 0.0825 2.875 0.125 C-0.56851061 3.06030803 -4.38592722 4.59117551 -8.5625 6.1875 C-9.21798828 6.44337891 -9.87347656 6.69925781 -10.54882812 6.96289062 C-12.40602695 7.68751484 -14.26546005 8.40640491 -16.125 9.125 C-17.50365234 9.74181641 -17.50365234 9.74181641 -18.91015625 10.37109375 C-21.125 11.125 -21.125 11.125 -24.125 10.125 C-23.795 9.465 -23.465 8.805 -23.125 8.125 C-21.145 8.125 -19.165 8.125 -17.125 8.125 C-17.125 7.465 -17.125 6.805 -17.125 6.125 C-15.145 6.125 -13.165 6.125 -11.125 6.125 C-11.125 5.465 -11.125 4.805 -11.125 4.125 C-10.17625 3.83625 -9.2275 3.5475 -8.25 3.25 C-4.63271314 1.94777673 -3.86021372 0.15440855 0 0 Z " fill="#E1AA24" transform="translate(358.125,365.875)"/>
<path d="M0 0 C0.99 0.33 1.98 0.66 3 1 C1.82149792 3.35700416 0.32096772 4.97430423 -1.4375 6.9375 C-3.50490751 9.24660859 -5.27413595 11.41120392 -7 14 C-7.66 14 -8.32 14 -9 14 C-9.33 14.99 -9.66 15.98 -10 17 C-10.99 16.67 -11.98 16.34 -13 16 C-12.14535156 15.01257813 -11.29070312 14.02515625 -10.41015625 13.0078125 C-9.2941626 11.71363499 -8.17828309 10.41935905 -7.0625 9.125 C-6.49853516 8.47402344 -5.93457031 7.82304687 -5.35351562 7.15234375 C-4.54624023 6.21455078 -4.54624023 6.21455078 -3.72265625 5.2578125 C-3.22515869 4.6817627 -2.72766113 4.10571289 -2.21508789 3.51220703 C-0.91115852 1.9986699 -0.91115852 1.9986699 0 0 Z " fill="#EEAF1D" transform="translate(396,288)"/>
<path d="M0 0 C3.37769872 5.06654808 3.69427685 11.0103912 3 17 C2.34 17.66 1.68 18.32 1 19 C-0.95151627 17.04848373 -0.70968749 13.54831255 -1.0625 10.9375 C-1.23910156 9.64714844 -1.41570312 8.35679687 -1.59765625 7.02734375 C-1.73042969 6.02832031 -1.86320312 5.02929688 -2 4 C-1.34 4 -0.68 4 0 4 C0 2.68 0 1.36 0 0 Z " fill="#D69632" transform="translate(480,425)"/>
<path d="M0 0 C0.66 0.66 1.32 1.32 2 2 C-0.31 2.66 -2.62 3.32 -5 4 C-5 4.66 -5 5.32 -5 6 C-11.435 7.98 -11.435 7.98 -18 10 C-18 9.34 -18 8.68 -18 8 C-16.56445975 7.49440092 -15.1264798 6.9957251 -13.6875 6.5 C-12.88699219 6.2215625 -12.08648437 5.943125 -11.26171875 5.65625 C-9 5 -9 5 -6 5 C-6.66 3.68 -7.32 2.36 -8 1 C-4.9553071 -0.84856355 -3.35670253 -1.34268101 0 0 Z " fill="#D48F15" transform="translate(404,236)"/>
<path d="M0 0 C2.9272625 3.80544125 5.84864746 7.69729493 8 12 C5.25 11.875 5.25 11.875 2 11 C-0.60523868 7.84629002 -2 6.13351845 -2 2 C-1.34 2 -0.68 2 0 2 C0 1.34 0 0.68 0 0 Z " fill="#EB9F17" transform="translate(263,515)"/>
<path d="M0 0 C0 0.66 0 1.32 0 2 C-0.66 2 -1.32 2 -2 2 C-2 3.32 -2 4.64 -2 6 C-1.01 6 -0.02 6 1 6 C1 6.66 1 7.32 1 8 C3.475 8.99 3.475 8.99 6 10 C5.01 10.495 5.01 10.495 4 11 C2.30419922 10.37915039 2.30419922 10.37915039 0.3046875 9.34765625 C-0.41074219 8.98349609 -1.12617188 8.61933594 -1.86328125 8.24414062 C-2.60964844 7.85419922 -3.35601562 7.46425781 -4.125 7.0625 C-5.25615234 6.48338867 -5.25615234 6.48338867 -6.41015625 5.89257812 C-8.27709097 4.93547868 -10.13902628 3.96863894 -12 3 C-12 2.67 -12 2.34 -12 2 C-10.35 2 -8.7 2 -7 2 C-7 2.66 -7 3.32 -7 4 C-6.401875 3.34 -5.80375 2.68 -5.1875 2 C-3 0 -3 0 0 0 Z " fill="#423620" transform="translate(484,308)"/>
<path d="M0 0 C11.369866 5.60845408 11.369866 5.60845408 13.5 10.3125 C13.665 11.199375 13.83 12.08625 14 13 C11 13 11 13 8.30078125 10.41015625 C7.29625729 9.30185366 6.3004628 8.18559061 5.3125 7.0625 C4.80138672 6.49853516 4.29027344 5.93457031 3.76367188 5.35351562 C0 1.15769985 0 1.15769985 0 0 Z " fill="#4A4B4A" transform="translate(58,300)"/>
<path d="M0 0 C1.65 1.65 3.3 3.3 5 5 C2.03 7.97 -0.94 10.94 -4 14 C-4.33 13.34 -4.66 12.68 -5 12 C-4.26821134 9.92803369 -3.44100997 7.8891448 -2.5625 5.875 C-2.08941406 4.77929688 -1.61632812 3.68359375 -1.12890625 2.5546875 C-0.75636719 1.71164062 -0.38382812 0.86859375 0 0 Z " fill="#EFAA1B" transform="translate(351,260)"/>
<path d="M0 0 C-1.45255699 3.82946843 -3.42895561 5.12050295 -7 7 C-7 5.68 -7 4.36 -7 3 C-7.9075 3.350625 -8.815 3.70125 -9.75 4.0625 C-13.00591313 5.00170571 -13.92749994 4.95514676 -17 4 C-15.10751181 3.32389577 -13.2108398 2.65949561 -11.3125 2 C-10.25675781 1.62875 -9.20101562 1.2575 -8.11328125 0.875 C-5.21637944 0.0608143 -2.98299377 -0.17709796 0 0 Z " fill="#DF9733" transform="translate(211,302)"/>
<path d="M0 0 C-2.62437839 1.74958559 -4.18203372 2.4748682 -7.125 3.2890625 C-7.91390625 3.50820312 -8.7028125 3.72734375 -9.515625 3.953125 C-10.33546875 4.17484375 -11.1553125 4.3965625 -12 4.625 C-13.22976563 4.96917969 -13.22976563 4.96917969 -14.484375 5.3203125 C-20.60323661 7 -20.60323661 7 -24 7 C-24 6.34 -24 5.68 -24 5 C-21.29120665 3.64560332 -18.99066732 3.93498549 -16 4 C-16 3.34 -16 2.68 -16 2 C-10.54538831 0.61470179 -5.63281599 -0.2396943 0 0 Z " fill="#EBB01C" transform="translate(428,244)"/>
<path d="M0 0 C0.33 0 0.66 0 1 0 C1.22731216 6.93302093 0.42002108 13.2168636 -1 20 C-1.33 20 -1.66 20 -2 20 C-2 15.71 -2 11.42 -2 7 C-3.32 7.33 -4.64 7.66 -6 8 C-2.25 2.25 -2.25 2.25 0 0 Z " fill="#DCA224" transform="translate(406,364)"/>
<path d="M0 0 C1.71299859 3.19657772 2.87777354 6.42941408 4 9.875 C4.33 10.88304687 4.66 11.89109375 5 12.9296875 C5.33 13.94289063 5.66 14.95609375 6 16 C6.66528051 18.00046152 7.33154309 20.00059764 8 22 C6.85073734 21.04578192 5.70569459 20.08647955 4.5625 19.125 C3.92441406 18.59132813 3.28632813 18.05765625 2.62890625 17.5078125 C1 16 1 16 0 14 C0.99 14 1.98 14 3 14 C2.7834375 13.40832031 2.566875 12.81664062 2.34375 12.20703125 C-0.42179262 4.35852373 -0.42179262 4.35852373 0 0 Z " fill="#E3AF28" transform="translate(302,251)"/>
<path d="M0 0 C5.22096889 0.53275193 9.25252126 1.78996679 14 4 C15.64475825 4.73158847 17.29061724 5.46070667 18.9375 6.1875 C20.29187368 6.79120246 21.64611467 7.39520315 23 8 C19.76670488 9.08273378 18.08657385 8.95310822 14.9609375 7.63671875 C13.84332031 7.17168945 13.84332031 7.17168945 12.703125 6.69726562 C11.93484375 6.36404297 11.1665625 6.03082031 10.375 5.6875 C9.59898437 5.36587891 8.82296875 5.04425781 8.0234375 4.71289062 C2.28847509 2.28847509 2.28847509 2.28847509 0 0 Z " fill="#E7B123" transform="translate(298,440)"/>
<path d="M0 0 C2 1 2 1 2.61328125 2.73046875 C3.79597069 9.67130275 3.35056686 16.38903071 1 23 C0.34 23 -0.32 23 -1 23 C-0.83701416 22.4337793 -0.67402832 21.86755859 -0.50610352 21.28417969 C0.01684172 18.92398883 0.11396742 16.86717843 0.09765625 14.453125 C0.09443359 13.60878906 0.09121094 12.76445312 0.08789062 11.89453125 C0.07951172 11.02183594 0.07113281 10.14914062 0.0625 9.25 C0.05798828 8.36183594 0.05347656 7.47367187 0.04882812 6.55859375 C0.037074 4.37232671 0.02064249 2.18619821 0 0 Z " fill="#423214" transform="translate(406,307)"/>
<path d="M0 0 C0.56847656 0.0928125 1.13695312 0.185625 1.72265625 0.28125 C1.72265625 0.61125 1.72265625 0.94125 1.72265625 1.28125 C0.73265625 1.466875 -0.25734375 1.6525 -1.27734375 1.84375 C-6.29711036 3.22957514 -9.62184829 6.73019727 -13.27734375 10.28125 C-13.60734375 9.62125 -13.93734375 8.96125 -14.27734375 8.28125 C-10.14572943 2.3295998 -7.4967066 -0.70086072 0 0 Z " fill="#EEC51D" transform="translate(59.27734375,53.71875)"/>
<path d="M0 0 C1.32 0.66 2.64 1.32 4 2 C3.34 5.96 2.68 9.92 2 14 C-1 11 -1 11 -1.328125 9.0625 C-1.30234375 8.381875 -1.2765625 7.70125 -1.25 7 C-1.23453125 6.319375 -1.2190625 5.63875 -1.203125 4.9375 C-1 3 -1 3 0 0 Z " fill="#E8A12D" transform="translate(173,430)"/>
<path d="M0 0 C0.33 0.99 0.66 1.98 1 3 C-0.40580276 4.65512248 -1.82506266 6.29882206 -3.25 7.9375 C-4.03890625 8.85402344 -4.8278125 9.77054688 -5.640625 10.71484375 C-7.91251033 12.91526249 -8.92319022 13.66832555 -12 14 C-8.34161026 8.88863277 -4.55388068 4.33702922 0 0 Z " fill="#EDAE21" transform="translate(428,188)"/>
<path d="M0 0 C3.68040867 2.32446864 5.2994906 4.07965475 6.3125 8.25 C6.539375 9.4875 6.76625 10.725 7 12 C5.125 11.6875 5.125 11.6875 3 11 C0.43383368 7.15075052 0.44902324 4.5650696 0 0 Z " fill="#F4A710" transform="translate(234,467)"/>
<path d="M0 0 C0.33 0 0.66 0 1 0 C1.19392301 5.54835291 1.24178844 9.85707359 -1 15 C-1.46266643 17.98953693 -1.75046142 20.98583668 -2 24 C-2.33 24 -2.66 24 -3 24 C-3.45636453 15.5657073 -2.17423358 8.14043404 0 0 Z " fill="#E4BD21" transform="translate(42,68)"/>
<path d="M0 0 C0 7.09111489 -7.49062022 13.07470656 -12 18 C-12.66 17.67 -13.32 17.34 -14 17 C-13.24074219 16.10796875 -12.48148437 15.2159375 -11.69921875 14.296875 C-10.69525246 13.11463432 -9.69134954 11.93233982 -8.6875 10.75 C-8.18798828 10.16347656 -7.68847656 9.57695312 -7.17382812 8.97265625 C-4.68918088 6.04373434 -2.2565687 3.11144626 0 0 Z " fill="#E2B027" transform="translate(378,310)"/>
<path d="M0 0 C0 0.33 0 0.66 0 1 C2.97 1.495 2.97 1.495 6 2 C6 2.33 6 2.66 6 3 C0.06 3 -5.88 3 -12 3 C-12 2.34 -12 1.68 -12 1 C-7.95858806 0.36605303 -4.0934693 -0.12404452 0 0 Z " fill="#424443" transform="translate(103,498)"/>
<path d="M0 0 C4.01628463 2.06241643 6.125395 3.85613631 8 8 C8.1875 10.8125 8.1875 10.8125 8 13 C7.566875 12.401875 7.13375 11.80375 6.6875 11.1875 C4.33871309 8.14277623 2.21452817 6.14301878 -1 4 C-0.01 4 0.98 4 2 4 C2 3.34 2 2.68 2 2 C1.34 2 0.68 2 0 2 C0 1.34 0 0.68 0 0 Z " fill="#E0A949" transform="translate(492,321)"/>
<path d="M0 0 C0.69921875 1.76953125 0.69921875 1.76953125 1 4 C-0.29296875 5.88671875 -0.29296875 5.88671875 -2.1875 7.6875 C-2.79980469 8.28949219 -3.41210938 8.89148438 -4.04296875 9.51171875 C-6.07283736 11.05539128 -7.50842901 11.58565893 -10 12 C-3.84965831 3.55353075 -3.84965831 3.55353075 0 0 Z " fill="#EFB120" transform="translate(415,202)"/>
<path d="M0 0 C0.33 0.66 0.66 1.32 1 2 C-0.3125 4 -0.3125 4 -2 6 C-2.99 6 -3.98 6 -5 6 C-5.33 6.99 -5.66 7.98 -6 9 C-8.9375 10.75 -8.9375 10.75 -12 12 C-12.66 11.67 -13.32 11.34 -14 11 C-13.07316406 10.28972656 -12.14632813 9.57945312 -11.19140625 8.84765625 C-9.98174158 7.91930895 -8.77210776 6.99092145 -7.5625 6.0625 C-6.95083984 5.59392578 -6.33917969 5.12535156 -5.70898438 4.64257812 C-2.75031115 2.44328176 -2.75031115 2.44328176 0 0 Z " fill="#E5AE24" transform="translate(383,387)"/>
<path d="M0 0 C0.66 0 1.32 0 2 0 C1.50269348 4.97306516 0.44697666 8.63799813 -2 13 C-2.33 13 -2.66 13 -3 13 C-3 11.35 -3 9.7 -3 8 C-2.34 8 -1.68 8 -1 8 C-1 7.34 -1 6.68 -1 6 C-1.66 5.67 -2.32 5.34 -3 5 C-1.625 2.5 -1.625 2.5 0 0 Z " fill="#E9AE31" transform="translate(428,451)"/>
<path d="M0 0 C0.28571429 8.57142857 0.28571429 8.57142857 -2 12 C-2 10.02 -2 8.04 -2 6 C-3.98 6.99 -3.98 6.99 -6 8 C-3.18918919 0 -3.18918919 0 0 0 Z " fill="#E6A634" transform="translate(207,356)"/>
<path d="M0 0 C0.33 0.66 0.66 1.32 1 2 C-0.97764782 6.06516496 -3.7373124 8.91367389 -7 12 C-7.66 11.67 -8.32 11.34 -9 11 C-6.03 7.37 -3.06 3.74 0 0 Z " fill="#E7AE1F" transform="translate(360,332)"/>
<path d="M0 0 C0.66 0 1.32 0 2 0 C2 0.66 2 1.32 2 2 C2.67546875 1.84402344 3.3509375 1.68804687 4.046875 1.52734375 C4.93890625 1.33269531 5.8309375 1.13804687 6.75 0.9375 C7.63171875 0.74027344 8.5134375 0.54304688 9.421875 0.33984375 C11.98679028 0.00174128 13.57091639 0.18841365 16 1 C12.01606389 2.84566532 8.55623317 3.36022829 4.1875 3.625 C2.44533203 3.73714844 2.44533203 3.73714844 0.66796875 3.8515625 C-0.21246094 3.90054687 -1.09289062 3.94953125 -2 4 C-1.34 2.68 -0.68 1.36 0 0 Z " fill="#F0AC2D" transform="translate(167,320)"/>
<path d="M0 0 C1.37617356 4.39392559 0.56943301 7.75170719 -1 12 C-2.625 14 -2.625 14 -4 15 C-3.43179252 9.54520815 -2.05362055 5.08940744 0 0 Z " fill="#E6B123" transform="translate(254,294)"/>
<path d="M0 0 C4.95 0.99 4.95 0.99 10 2 C8.35 3.32 6.7 4.64 5 6 C3.2925002 4.71937515 1.62626404 3.38232443 0 2 C0 1.34 0 0.68 0 0 Z " fill="#E0973A" transform="translate(445,302)"/>
<path d="M0 0 C0.33 0.99 0.66 1.98 1 3 C-1.64 5.64 -4.28 8.28 -7 11 C-7.66 10.67 -8.32 10.34 -9 10 C-7.8758824 8.70756532 -6.75067408 7.41607925 -5.625 6.125 C-4.99851562 5.40570313 -4.37203125 4.68640625 -3.7265625 3.9453125 C-2.52573166 2.5923402 -1.2791655 1.2791655 0 0 Z " fill="#E8AE22" transform="translate(464,149)"/>
<path d="M0 0 C0.66 0.33 1.32 0.66 2 1 C-0.31 3.64 -2.62 6.28 -5 9 C-5.33 8.34 -5.66 7.68 -6 7 C-6.99 6.67 -7.98 6.34 -9 6 C-6.03 4.02 -3.06 2.04 0 0 Z " fill="#484A49" transform="translate(595,301)"/>
<path d="M0 0 C1.32 0 2.64 0 4 0 C4.96205088 6.37358711 5.10655578 12.55929529 5 19 C4.67 19 4.34 19 4 19 C3.87882812 18.04738281 3.75765625 17.09476563 3.6328125 16.11328125 C3.46523438 14.85902344 3.29765625 13.60476562 3.125 12.3125 C2.96257812 11.07113281 2.80015625 9.82976562 2.6328125 8.55078125 C2.07521631 5.42204705 1.30991877 2.87851898 0 0 Z " fill="#E3AC25" transform="translate(350,233)"/>
<path d="M0 0 C0.66 0.33 1.32 0.66 2 1 C-1.75 4 -1.75 4 -4 4 C-4.20625 4.639375 -4.4125 5.27875 -4.625 5.9375 C-6 8 -6 8 -9.125 8.75 C-10.548125 8.87375 -10.548125 8.87375 -12 9 C-8.63378119 5.21300384 -4.58358196 2.1727369 0 0 Z " fill="#E7AC2F" transform="translate(547,77)"/>
<path d="M0 0 C3.41264084 0.23136548 5.64215935 0.7734712 8.6875 2.25 C5.6875 3.25 5.6875 3.25 2.6875 2.625 C-0.3033401 1.89457534 -0.3033401 1.89457534 -2.1875 3.6875 C-2.55875 4.203125 -2.93 4.71875 -3.3125 5.25 C-3.9725 4.26 -4.6325 3.27 -5.3125 2.25 C-3.3125 0.25 -3.3125 0.25 0 0 Z " fill="#EF9F34" transform="translate(455.3125,304.75)"/>
<path d="M0 0 C0.66 0 1.32 0 2 0 C1.67 1.65 1.34 3.3 1 5 C-3.29 4.01 -7.58 3.02 -12 2 C-7.36533108 0.84133277 -4.66739961 1.29989006 0 2 C0 1.34 0 0.68 0 0 Z " fill="#EBB925" transform="translate(266,250)"/>
<path d="M0 0 C1.65 1.65 3.3 3.3 5 5 C4.01 5.33 3.02 5.66 2 6 C2 7.98 2 9.96 2 12 C-0.60018816 8.09971775 -0.15085514 4.52565431 0 0 Z " fill="#DBAE32" transform="translate(248,363)"/>
<path d="M0 0 C3.39914975 1.13304992 4.05254451 2.12518475 6 5 C5.67 5.66 5.34 6.32 5 7 C4.34 6.34 3.68 5.68 3 5 C3 7.64 3 10.28 3 13 C1.32889958 10.03821227 0.67317248 7.62928808 0.375 4.25 C0.30023438 3.45078125 0.22546875 2.6515625 0.1484375 1.828125 C0.09945313 1.22484375 0.05046875 0.6215625 0 0 Z " fill="#D69740" transform="translate(448,356)"/>
<path d="M0 0 C2.64 0 5.28 0 8 0 C5.14415227 1.90389849 3.0688238 2.69462177 -0.1875 3.625 C-1.08855469 3.88539063 -1.98960937 4.14578125 -2.91796875 4.4140625 C-3.94857422 4.70410156 -3.94857422 4.70410156 -5 5 C-5 4.01 -5 3.02 -5 2 C-3.35 2 -1.7 2 0 2 C0 1.34 0 0.68 0 0 Z " fill="#45361A" transform="translate(192,304)"/>
<path d="M0 0 C0 0.99 0 1.98 0 3 C-1.4096347 3.70180531 -2.82807641 4.38593958 -4.25 5.0625 C-5.03890625 5.44535156 -5.8278125 5.82820313 -6.640625 6.22265625 C-9 7 -9 7 -13 6 C-8.71 4.02 -4.42 2.04 0 0 Z " fill="#E2A72C" transform="translate(586,57)"/>
<path d="M0 0 C1.98 0 3.96 0 6 0 C3.96180154 2.03819846 2.70582202 2.67841059 0.0625 3.6875 C-0.62714844 3.95949219 -1.31679688 4.23148437 -2.02734375 4.51171875 C-4 5 -4 5 -7 4 C-6.67 3.34 -6.34 2.68 -6 2 C-4.02 2 -2.04 2 0 2 C0 1.34 0 0.68 0 0 Z " fill="#EAB122" transform="translate(341,372)"/>
<path d="M0 0 C0.66 0.33 1.32 0.66 2 1 C0.87895467 2.31587941 -0.24696965 3.62760353 -1.375 4.9375 C-2.00148438 5.66839844 -2.62796875 6.39929688 -3.2734375 7.15234375 C-5 9 -5 9 -7 10 C-5.6062718 5.56541027 -3.39417765 3.12621626 0 0 Z " fill="#433619" transform="translate(311,228)"/>
<path d="M0 0 C0.33 0.66 0.66 1.32 1 2 C-3.14285714 8.42857143 -3.14285714 8.42857143 -6 11 C-6.66 10.67 -7.32 10.34 -8 10 C-5.36 6.7 -2.72 3.4 0 0 Z " fill="#ECB321" transform="translate(337,359)"/>
<path d="M0 0 C0.99 0.33 1.98 0.66 3 1 C1.54143895 3.9171221 -0.62423837 5.79807458 -3 8 C-3.66 8 -4.32 8 -5 8 C-3.62845496 5.04590299 -2.01136276 2.55991624 0 0 Z " fill="#E9AC26" transform="translate(396,288)"/>
<path d="M0 0 C1.65 0.33 3.3 0.66 5 1 C5 1.99 5 2.98 5 4 C4 5 4 5 1.4375 5.0625 C0.2309375 5.0315625 0.2309375 5.0315625 -1 5 C-1 4.34 -1 3.68 -1 3 C-0.34 2.67 0.32 2.34 1 2 C0.67 1.34 0.34 0.68 0 0 Z " fill="#FBBA03" transform="translate(263,236)"/>
<path d="M0 0 C4.2742558 1.5830577 6.26531794 4.50568404 9 8 C6 8 6 8 4.39453125 6.50390625 C3.61142578 5.54291016 3.61142578 5.54291016 2.8125 4.5625 C2.28269531 3.92441406 1.75289062 3.28632813 1.20703125 2.62890625 C0 1 0 1 0 0 Z " fill="#6F490B" transform="translate(166,160)"/>
<path d="M0 0 C2 2 2 2 2 5 C-1 7 -1 7 -3.1875 6.625 C-3.785625 6.41875 -4.38375 6.2125 -5 6 C-3.35 4.02 -1.7 2.04 0 0 Z " fill="#E0AC40" transform="translate(389,520)"/>
<path d="M0 0 C0.33 1.32 0.66 2.64 1 4 C-1.4375 6.75 -1.4375 6.75 -4 9 C-4.99 8.67 -5.98 8.34 -7 8 C-4.69 5.36 -2.38 2.72 0 0 Z " fill="#E2AC1F" transform="translate(348,346)"/>
<path d="M0 0 C0.66 0.33 1.32 0.66 2 1 C-0.64 3.97 -3.28 6.94 -6 10 C-6.99 9.34 -7.98 8.68 -9 8 C-8.43410156 7.50628906 -7.86820312 7.01257813 -7.28515625 6.50390625 C-6.55167969 5.86324219 -5.81820313 5.22257813 -5.0625 4.5625 C-4.33160156 3.92441406 -3.60070312 3.28632813 -2.84765625 2.62890625 C-1.87860647 1.77458541 -0.91348825 0.91348825 0 0 Z " fill="#5B4409" transform="translate(489,160)"/>
<path d="M0 0 C1.65 1.65 3.3 3.3 5 5 C3.25 5.75 3.25 5.75 1 6 C-1.25 4.0625 -1.25 4.0625 -3 2 C-2.01 1.34 -1.02 0.68 0 0 Z " fill="#E3AD2D" transform="translate(266,521)"/>
<path d="M0 0 C0.33 0.99 0.66 1.98 1 3 C-1.31 4.98 -3.62 6.96 -6 9 C-6.66 8.67 -7.32 8.34 -8 8 C-5.36 5.36 -2.72 2.72 0 0 Z " fill="#463318" transform="translate(357,263)"/>
<path d="M0 0 C0.33 0.99 0.66 1.98 1 3 C0.34 2.67 -0.32 2.34 -1 2 C-0.67 1.34 -0.34 0.68 0 0 Z M-3 3 C-2.34 3 -1.68 3 -1 3 C-1 4.98 -1 6.96 -1 9 C-1.99 9 -2.98 9 -4 9 C-3.67 7.02 -3.34 5.04 -3 3 Z " fill="#FBAF22" transform="translate(398,506)"/>
<path d="M0 0 C0.66 0 1.32 0 2 0 C2 0.66 2 1.32 2 2 C1.34 2 0.68 2 0 2 C0 4.31 0 6.62 0 9 C-0.99 9 -1.98 9 -3 9 C-2.69181644 7.68647977 -2.37832335 6.37420428 -2.0625 5.0625 C-1.88847656 4.33160156 -1.71445312 3.60070312 -1.53515625 2.84765625 C-1 1 -1 1 0 0 Z " fill="#F7B227" transform="translate(425,457)"/>
<path d="M0 0 C3.56521654 1.78260827 6.71455357 3.75992289 10 6 C8.68 6.33 7.36 6.66 6 7 C4.02 4.69 2.04 2.38 0 0 Z " fill="#3E4040" transform="translate(58,300)"/>
<path d="M0 0 C1.32 0.66 2.64 1.32 4 2 C4 2.66 4 3.32 4 4 C2.02 4.66 0.04 5.32 -2 6 C-1.34 4.02 -0.68 2.04 0 0 Z " fill="#E0A82D" transform="translate(257,288)"/>
<path d="M0 0 C0.33 0.66 0.66 1.32 1 2 C0.67 2.66 0.34 3.32 0 4 C0.66 4 1.32 4 2 4 C1.34 5.32 0.68 6.64 0 8 C-0.99 7.67 -1.98 7.34 -3 7 C-1.125 1.125 -1.125 1.125 0 0 Z " fill="#EBAD2F" transform="translate(422,462)"/>
<path d="M0 0 C0.33 0.66 0.66 1.32 1 2 C3.32156597 2.40729228 5.6568787 2.74438677 8 3 C5.36095629 4.41377341 2.92879371 5.37240135 0 6 C0 4.02 0 2.04 0 0 Z " fill="#E9B51D" transform="translate(389,250)"/>
<path d="M0 0 C1.4783226 2.95664519 1.06032783 5.74229737 1 9 C-1.25245881 6.31158141 -2.88213958 4.35358125 -4 1 C-2.68 0.67 -1.36 0.34 0 0 Z " fill="#E7A121" transform="translate(259,508)"/>
<path d="M0 0 C0.33 0 0.66 0 1 0 C1.33 1.65 1.66 3.3 2 5 C2.33 5 2.66 5 3 5 C3 6.98 3 8.96 3 11 C1.5 10 1.5 10 0 8 C-0.27345479 5.28153765 -0.13491285 2.74322801 0 0 Z " fill="#C69535" transform="translate(172,433)"/>
<path d="M0 0 C0.33 0.99 0.66 1.98 1 3 C-0.32 4.32 -1.64 5.64 -3 7 C-3.99 6.67 -4.98 6.34 -6 6 C-4.02 4.02 -2.04 2.04 0 0 Z " fill="#EAAD21" transform="translate(399,372)"/>
<path d="M0 0 C0.66 0 1.32 0 2 0 C2 0.66 2 1.32 2 2 C2.99 2 3.98 2 5 2 C5.66 4.31 6.32 6.62 7 9 C4.03595495 6.19195732 1.55500981 3.81684226 0 0 Z " fill="#E0AD21" transform="translate(252,331)"/>
<path d="M0 0 C0.33 0.99 0.66 1.98 1 3 C1.66 3.33 2.32 3.66 3 4 C0.03 6.475 0.03 6.475 -3 9 C-2.01 6.03 -1.02 3.06 0 0 Z " fill="#D5A331" transform="translate(349,265)"/>
<path d="M0 0 C0.33 0.99 0.66 1.98 1 3 C-0.32 4.32 -1.64 5.64 -3 7 C-3.66 6.67 -4.32 6.34 -5 6 C-3.35 4.02 -1.7 2.04 0 0 Z " fill="#E6A91F" transform="translate(436,179)"/>
<path d="M0 0 C0.33 0.99 0.66 1.98 1 3 C-0.32 4.32 -1.64 5.64 -3 7 C-3.99 6.67 -4.98 6.34 -6 6 C-4.02 4.02 -2.04 2.04 0 0 Z " fill="#F0B221" transform="translate(486,126)"/>
<path d="M0 0 C2.475 0.495 2.475 0.495 5 1 C4.67 2.32 4.34 3.64 4 5 C3.01 4.67 2.02 4.34 1 4 C0.3125 1.9375 0.3125 1.9375 0 0 Z " fill="#F9A812" transform="translate(254,505)"/>
<path d="M0 0 C0.33 0.66 0.66 1.32 1 2 C3.02463255 2.65213292 3.02463255 2.65213292 5 3 C4.67 4.32 4.34 5.64 4 7 C4 6.34 4 5.68 4 5 C3.01 5 2.02 5 1 5 C0.67 3.35 0.34 1.7 0 0 Z " fill="#FAA120" transform="translate(473,416)"/>
<path d="M0 0 C0.99 0 1.98 0 3 0 C2.40138258 2.35171131 1.73075648 4.6859378 1 7 C0.01 7.495 0.01 7.495 -1 8 C-0.67 5.36 -0.34 2.72 0 0 Z " fill="#D19A36" transform="translate(156,327)"/>
<path d="M0 0 C0.33 0.99 0.66 1.98 1 3 C-0.65 4.32 -2.3 5.64 -4 7 C-4.66 6.67 -5.32 6.34 -6 6 C-4.02 4.02 -2.04 2.04 0 0 Z " fill="#E9AC22" transform="translate(495,117)"/>
<path d="M0 0 C0.33 0.99 0.66 1.98 1 3 C-0.98 4.32 -2.96 5.64 -5 7 C-5.66 6.67 -6.32 6.34 -7 6 C-4.69 4.02 -2.38 2.04 0 0 Z " fill="#E6AA26" transform="translate(511,103)"/>
<path d="M0 0 C2.95183101 2.95183101 3.08663988 5.95511947 4 10 C2 8.375 2 8.375 0 6 C-0.25 2.75 -0.25 2.75 0 0 Z " fill="#E1A229" transform="translate(611,65)"/>
<path d="" fill="#47474B" transform="translate(0,0)"/>
<path d="" fill="#9D9D9D" transform="translate(0,0)"/>
</svg>
