<?xml version="1.0" encoding="UTF-8"?>
<!DOCTYPE svg PUBLIC "-//W3C//DTD SVG 1.1//EN" "http://www.w3.org/Graphics/SVG/1.1/DTD/svg11.dtd">
<svg xmlns="http://www.w3.org/2000/svg" version="1.1" width="650px" height="650px" style="shape-rendering:geometricPrecision; text-rendering:geometricPrecision; image-rendering:optimizeQuality; fill-rule:evenodd; clip-rule:evenodd" xmlns:xlink="http://www.w3.org/1999/xlink">
<g><path style="opacity:0.949" fill="#32312e" d="M 433.5,250.5 C 432.668,249.671 433.001,248.838 434.5,248C 432.873,248.43 431.373,248.596 430,248.5C 428,245.833 426,245.833 424,248.5C 423.586,248.043 423.086,247.709 422.5,247.5C 417.385,250.325 412.051,251.325 406.5,250.5C 435.541,241.99 464.541,233.323 493.5,224.5C 500.042,223.041 506.375,220.875 512.5,218C 523.508,213.112 533.842,207.278 543.5,200.5C 549.783,197.217 554.783,192.55 558.5,186.5C 565.476,179.682 570.143,171.515 572.5,162C 572.037,159.611 571.37,157.277 570.5,155C 577.657,149.342 583.991,142.842 589.5,135.5C 596.128,128.269 602.294,120.602 608,112.5C 617.592,95.3327 617.925,77.9994 609,60.5C 606.564,57.5532 603.731,55.2199 600.5,53.5C 599.726,52.8529 598.726,52.5195 597.5,52.5C 595.645,52.3402 594.312,53.0069 593.5,54.5C 583.614,57.4488 574.281,61.4488 565.5,66.5C 560.5,68.6643 555.833,71.331 551.5,74.5C 538.445,81.357 526.445,89.6903 515.5,99.5C 510.2,102.831 505.2,106.664 500.5,111C 489.632,122.035 478.632,132.869 467.5,143.5C 467.5,142.167 467.5,140.833 467.5,139.5C 466.07,139.579 464.736,139.246 463.5,138.5C 461.759,141.608 459.092,143.274 455.5,143.5C 466.317,130.562 477.151,117.562 488,104.5C 510.152,83.3276 535.319,66.4943 563.5,54C 580.131,47.2347 596.964,41.068 614,35.5C 619.81,53.2429 623.976,71.4096 626.5,90C 626.464,99.4423 623.63,107.942 618,115.5C 614,119.5 610,123.5 606,127.5C 597.714,138.787 589.048,149.787 580,160.5C 579.769,169.86 576.769,178.194 571,185.5C 553.828,204.501 533.328,218.668 509.5,228C 484.291,236.015 458.957,243.515 433.5,250.5 Z"/></g>
<g><path style="opacity:0.937" fill="#5d3f13" d="M 600.5,53.5 C 598.097,53.448 595.764,53.7814 593.5,54.5C 594.312,53.0069 595.645,52.3402 597.5,52.5C 598.726,52.5195 599.726,52.8529 600.5,53.5 Z"/></g>
<g><path style="opacity:0.93" fill="#f7a717" d="M 600.5,53.5 C 603.731,55.2199 606.564,57.5532 609,60.5C 617.925,77.9994 617.592,95.3327 608,112.5C 602.294,120.602 596.128,128.269 589.5,135.5C 589.336,132.813 589.503,130.146 590,127.5C 590.333,127.833 590.667,128.167 591,128.5C 594.988,123.205 598.988,117.872 603,112.5C 603.536,110.131 604.703,108.131 606.5,106.5C 606.154,105.304 605.654,105.304 605,106.5C 604.536,105.906 604.369,105.239 604.5,104.5C 604.793,103.357 604.793,102.023 604.5,100.5C 606.019,96.074 607.686,91.7406 609.5,87.5C 608.452,85.5896 608.452,83.7562 609.5,82C 607.21,81.2096 606.877,79.8763 608.5,78C 606.598,72.2988 603.931,66.9655 600.5,62C 599.17,62.0772 597.836,62.5772 596.5,63.5C 595.353,63.1822 594.519,62.5156 594,61.5C 592.647,62.7042 590.981,63.3708 589,63.5C 587.5,63.3333 586,63.1667 584.5,63C 585.678,62.0331 587.011,61.5331 588.5,61.5C 587.009,60.7564 585.509,60.0897 584,59.5C 579.657,60.8362 575.657,62.8362 572,65.5C 569.863,66.0767 567.696,66.41 565.5,66.5C 574.281,61.4488 583.614,57.4488 593.5,54.5C 595.764,53.7814 598.097,53.448 600.5,53.5 Z"/></g>
<g><path style="opacity:0.965" fill="#fbaa0e" d="M 604.5,104.5 C 601.342,101.941 600.009,102.941 600.5,107.5C 601.552,107.351 602.552,107.517 603.5,108C 601.469,109.296 599.636,110.796 598,112.5C 596.667,112.5 595.333,112.5 594,112.5C 593.448,115.28 592.948,117.78 592.5,120C 587.565,119.157 584.565,121.323 583.5,126.5C 581.844,124.978 580.677,125.311 580,127.5C 579.333,124.833 578.667,124.833 578,127.5C 577.667,126.833 577.333,126.167 577,125.5C 577.026,129.466 575.359,132.466 572,134.5C 571,134.167 570,133.833 569,133.5C 568.333,136.167 567.667,136.167 567,133.5C 565.417,133.493 563.751,133.826 562,134.5C 560.951,132.893 559.451,132.227 557.5,132.5C 557.561,129.95 558.894,128.45 561.5,128C 561.02,120.5 560.52,113.333 560,106.5C 559,105.833 558,105.167 557,104.5C 556.5,105.667 555.667,106.5 554.5,107C 558.075,111.745 557.075,115.745 551.5,119C 555.449,119.807 555.449,120.307 551.5,120.5C 551.208,135.025 551.541,149.525 552.5,164C 551.255,168.364 550.422,172.53 550,176.5C 549.667,152.833 549.333,129.167 549,105.5C 548.259,104.359 547.425,104.359 546.5,105.5C 544.833,107.5 543.167,109.5 541.5,111.5C 540.402,107.639 539.569,107.639 539,111.5C 538.667,111.167 538.333,110.833 538,110.5C 536.473,115.088 534.473,115.421 532,111.5C 531.333,116.833 530.667,116.833 530,111.5C 529.683,113.301 529.016,113.634 528,112.5C 526.543,109.634 526.21,106.634 527,103.5C 527.333,103.833 527.667,104.167 528,104.5C 528.731,102.101 529.898,99.9347 531.5,98C 531.906,96.1971 531.406,94.3638 530,92.5C 529.346,93.6956 528.846,93.6956 528.5,92.5C 530.076,88.4596 533.076,86.2929 537.5,86C 540.686,82.8205 544.352,80.3205 548.5,78.5C 549.91,77.4305 550.91,76.0972 551.5,74.5C 555.833,71.331 560.5,68.6643 565.5,66.5C 567.696,66.41 569.863,66.0767 572,65.5C 575.657,62.8362 579.657,60.8362 584,59.5C 585.509,60.0897 587.009,60.7564 588.5,61.5C 587.011,61.5331 585.678,62.0331 584.5,63C 586,63.1667 587.5,63.3333 589,63.5C 590.981,63.3708 592.647,62.7042 594,61.5C 594.519,62.5156 595.353,63.1822 596.5,63.5C 597.836,62.5772 599.17,62.0772 600.5,62C 603.931,66.9655 606.598,72.2988 608.5,78C 606.877,79.8763 607.21,81.2096 609.5,82C 608.452,83.7562 608.452,85.5896 609.5,87.5C 607.686,91.7406 606.019,96.074 604.5,100.5C 604.793,102.023 604.793,103.357 604.5,104.5 Z"/></g>
<g><path style="opacity:0.969" fill="#fcac0c" d="M 551.5,74.5 C 550.91,76.0972 549.91,77.4305 548.5,78.5C 544.352,80.3205 540.686,82.8205 537.5,86C 533.076,86.2929 530.076,88.4596 528.5,92.5C 528.846,93.6956 529.346,93.6956 530,92.5C 531.406,94.3638 531.906,96.1971 531.5,98C 529.898,99.9347 528.731,102.101 528,104.5C 527.667,104.167 527.333,103.833 527,103.5C 526.21,106.634 526.543,109.634 528,112.5C 529.016,113.634 529.683,113.301 530,111.5C 530.667,116.833 531.333,116.833 532,111.5C 534.473,115.421 536.473,115.088 538,110.5C 538.333,110.833 538.667,111.167 539,111.5C 539.569,107.639 540.402,107.639 541.5,111.5C 543.167,109.5 544.833,107.5 546.5,105.5C 547.425,104.359 548.259,104.359 549,105.5C 549.333,129.167 549.667,152.833 550,176.5C 550.422,172.53 551.255,168.364 552.5,164C 551.541,149.525 551.208,135.025 551.5,120.5C 555.449,120.307 555.449,119.807 551.5,119C 557.075,115.745 558.075,111.745 554.5,107C 555.667,106.5 556.5,105.667 557,104.5C 558,105.167 559,105.833 560,106.5C 560.52,113.333 561.02,120.5 561.5,128C 558.894,128.45 557.561,129.95 557.5,132.5C 559.451,132.227 560.951,132.893 562,134.5C 563.751,133.826 565.417,133.493 567,133.5C 567.667,136.167 568.333,136.167 569,133.5C 570,133.833 571,134.167 572,134.5C 575.359,132.466 577.026,129.466 577,125.5C 577.333,126.167 577.667,126.833 578,127.5C 578.667,124.833 579.333,124.833 580,127.5C 580.677,125.311 581.844,124.978 583.5,126.5C 584.565,121.323 587.565,119.157 592.5,120C 592.948,117.78 593.448,115.28 594,112.5C 595.333,112.5 596.667,112.5 598,112.5C 599.636,110.796 601.469,109.296 603.5,108C 602.552,107.517 601.552,107.351 600.5,107.5C 600.009,102.941 601.342,101.941 604.5,104.5C 604.369,105.239 604.536,105.906 605,106.5C 605.654,105.304 606.154,105.304 606.5,106.5C 604.703,108.131 603.536,110.131 603,112.5C 598.988,117.872 594.988,123.205 591,128.5C 590.667,128.167 590.333,127.833 590,127.5C 589.503,130.146 589.336,132.813 589.5,135.5C 583.991,142.842 577.657,149.342 570.5,155C 571.37,157.277 572.037,159.611 572.5,162C 570.143,171.515 565.476,179.682 558.5,186.5C 553.474,191.195 548.474,195.861 543.5,200.5C 533.842,207.278 523.508,213.112 512.5,218C 506.375,220.875 500.042,223.041 493.5,224.5C 490.934,224.344 488.434,224.678 486,225.5C 483.569,223.119 482.069,223.786 481.5,227.5C 478.193,227.462 475.026,228.128 472,229.5C 469.835,229.594 467.835,229.26 466,228.5C 465.517,229.448 465.351,230.448 465.5,231.5C 460.5,232.833 455.5,232.833 450.5,231.5C 450.468,227.966 450.802,224.799 451.5,222C 447.897,220.353 447.564,218.187 450.5,215.5C 455.38,212.229 460.714,209.729 466.5,208C 474.453,206.376 482.453,205.042 490.5,204C 476.425,203.352 463.092,206.185 450.5,212.5C 449.178,212.67 448.011,212.337 447,211.5C 445.663,213.004 443.996,214.004 442,214.5C 441.71,212.956 441.044,211.623 440,210.5C 439.549,212.929 438.715,213.096 437.5,211C 439.189,208.137 440.856,205.303 442.5,202.5C 448.203,196.795 454.203,191.462 460.5,186.5C 463.518,184.474 466.518,182.474 469.5,180.5C 471.821,180.771 473.821,180.104 475.5,178.5C 476.716,179.002 477.883,179.335 479,179.5C 479.483,178.552 479.649,177.552 479.5,176.5C 480.873,176.657 482.207,176.49 483.5,176C 481.388,175.094 480.555,173.594 481,171.5C 485.395,168.272 489.561,164.939 493.5,161.5C 492.391,159.615 491.557,157.615 491,155.5C 490.086,156.654 489.253,156.487 488.5,155C 489.167,154.667 489.833,154.333 490.5,154C 488.606,152.899 487.939,151.566 488.5,150C 487.584,149.626 486.75,149.126 486,148.5C 485.276,150.959 483.943,151.959 482,151.5C 480.494,154.474 478.828,154.807 477,152.5C 476.5,153 476,153.5 475.5,154C 476.973,154.71 477.64,155.876 477.5,157.5C 472.756,157.962 471.756,156.462 474.5,153C 471.724,151.221 472.057,150.221 475.5,150C 473.122,149.026 473.456,148.359 476.5,148C 476.167,147.667 475.833,147.333 475.5,147C 476.931,146.535 478.097,145.701 479,144.5C 479.654,145.696 480.154,145.696 480.5,144.5C 479.624,143.749 478.624,143.249 477.5,143C 478.938,142.781 480.271,142.281 481.5,141.5C 481.901,139.566 482.901,138.066 484.5,137C 483.692,136.692 483.025,136.192 482.5,135.5C 487.803,130.786 492.303,125.453 496,119.5C 496.903,118.299 498.069,117.465 499.5,117C 498.833,116.667 498.167,116.333 497.5,116C 499.074,115.647 500.741,114.98 502.5,114C 503.116,111.821 504.283,109.988 506,108.5C 506.333,108.833 506.667,109.167 507,109.5C 510.078,106.321 512.912,102.988 515.5,99.5C 526.445,89.6903 538.445,81.357 551.5,74.5 Z"/></g>
<g><path style="opacity:0.926" fill="#faaf10" d="M 515.5,99.5 C 512.912,102.988 510.078,106.321 507,109.5C 506.667,109.167 506.333,108.833 506,108.5C 504.283,109.988 503.116,111.821 502.5,114C 500.741,114.98 499.074,115.647 497.5,116C 498.167,116.333 498.833,116.667 499.5,117C 498.069,117.465 496.903,118.299 496,119.5C 492.303,125.453 487.803,130.786 482.5,135.5C 483.025,136.192 483.692,136.692 484.5,137C 482.901,138.066 481.901,139.566 481.5,141.5C 480.271,142.281 478.938,142.781 477.5,143C 478.624,143.249 479.624,143.749 480.5,144.5C 480.154,145.696 479.654,145.696 479,144.5C 478.097,145.701 476.931,146.535 475.5,147C 475.833,147.333 476.167,147.667 476.5,148C 473.456,148.359 473.122,149.026 475.5,150C 472.057,150.221 471.724,151.221 474.5,153C 471.756,156.462 472.756,157.962 477.5,157.5C 477.64,155.876 476.973,154.71 475.5,154C 476,153.5 476.5,153 477,152.5C 478.828,154.807 480.494,154.474 482,151.5C 483.943,151.959 485.276,150.959 486,148.5C 486.75,149.126 487.584,149.626 488.5,150C 487.939,151.566 488.606,152.899 490.5,154C 489.833,154.333 489.167,154.667 488.5,155C 489.253,156.487 490.086,156.654 491,155.5C 491.557,157.615 492.391,159.615 493.5,161.5C 489.561,164.939 485.395,168.272 481,171.5C 480.555,173.594 481.388,175.094 483.5,176C 482.207,176.49 480.873,176.657 479.5,176.5C 479.649,177.552 479.483,178.552 479,179.5C 477.883,179.335 476.716,179.002 475.5,178.5C 473.821,180.104 471.821,180.771 469.5,180.5C 476.605,173.897 483.605,167.063 490.5,160C 489.833,159.333 489.167,159.333 488.5,160C 478.937,169.068 469.27,177.901 459.5,186.5C 449.226,193.775 439.559,201.775 430.5,210.5C 434.772,208.226 438.772,205.559 442.5,202.5C 440.856,205.303 439.189,208.137 437.5,211C 438.715,213.096 439.549,212.929 440,210.5C 441.044,211.623 441.71,212.956 442,214.5C 443.996,214.004 445.663,213.004 447,211.5C 448.011,212.337 449.178,212.67 450.5,212.5C 440.258,218.07 430.258,224.07 420.5,230.5C 418.62,230.229 417.287,230.896 416.5,232.5C 413.515,233.326 410.849,234.659 408.5,236.5C 400.905,239.031 393.238,241.365 385.5,243.5C 382.7,240.027 382.867,236.693 386,233.5C 413.374,203.629 440.54,173.629 467.5,143.5C 478.632,132.869 489.632,122.035 500.5,111C 505.2,106.664 510.2,102.831 515.5,99.5 Z"/></g>
<g><path style="opacity:1" fill="#4d3708" d="M 469.5,180.5 C 466.518,182.474 463.518,184.474 460.5,186.5C 460.167,186.5 459.833,186.5 459.5,186.5C 469.27,177.901 478.937,169.068 488.5,160C 489.167,159.333 489.833,159.333 490.5,160C 483.605,167.063 476.605,173.897 469.5,180.5 Z"/></g>
<g><path style="opacity:1" fill="#453316" d="M 558.5,186.5 C 554.783,192.55 549.783,197.217 543.5,200.5C 548.474,195.861 553.474,191.195 558.5,186.5 Z"/></g>
<g><path style="opacity:0.937" fill="#623b06" d="M 459.5,186.5 C 459.833,186.5 460.167,186.5 460.5,186.5C 454.203,191.462 448.203,196.795 442.5,202.5C 438.772,205.559 434.772,208.226 430.5,210.5C 439.559,201.775 449.226,193.775 459.5,186.5 Z"/></g>
<g><path style="opacity:1" fill="#5d3a0e" d="M 450.5,215.5 C 440.5,220.5 430.5,225.5 420.5,230.5C 430.258,224.07 440.258,218.07 450.5,212.5C 463.092,206.185 476.425,203.352 490.5,204C 482.453,205.042 474.453,206.376 466.5,208C 460.714,209.729 455.38,212.229 450.5,215.5 Z"/></g>
<g><path style="opacity:0.937" fill="#714105" d="M 430.5,210.5 C 425.651,215.511 420.317,220.011 414.5,224C 410.877,227.005 406.877,229.005 402.5,230C 412.066,223.727 421.399,217.227 430.5,210.5 Z"/></g>
<g><path style="opacity:0.923" fill="#fab10d" d="M 450.5,215.5 C 447.564,218.187 447.897,220.353 451.5,222C 450.802,224.799 450.468,227.966 450.5,231.5C 455.5,232.833 460.5,232.833 465.5,231.5C 465.351,230.448 465.517,229.448 466,228.5C 467.835,229.26 469.835,229.594 472,229.5C 475.026,228.128 478.193,227.462 481.5,227.5C 482.069,223.786 483.569,223.119 486,225.5C 488.434,224.678 490.934,224.344 493.5,224.5C 464.541,233.323 435.541,241.99 406.5,250.5C 401.136,251.62 395.803,252.953 390.5,254.5C 389.558,254.392 388.725,254.059 388,253.5C 387.178,250.883 386.678,248.216 386.5,245.5C 393.983,242.894 401.316,239.894 408.5,236.5C 411.754,236.206 414.421,234.873 416.5,232.5C 418.38,232.771 419.713,232.104 420.5,230.5C 430.5,225.5 440.5,220.5 450.5,215.5 Z"/></g>
<g><path style="opacity:0.989" fill="#30302f" d="M 455.5,143.5 C 459.092,143.274 461.759,141.608 463.5,138.5C 464.736,139.246 466.07,139.579 467.5,139.5C 467.5,140.833 467.5,142.167 467.5,143.5C 440.54,173.629 413.374,203.629 386,233.5C 382.867,236.693 382.7,240.027 385.5,243.5C 385.328,244.492 385.662,245.158 386.5,245.5C 386.678,248.216 387.178,250.883 388,253.5C 388.725,254.059 389.558,254.392 390.5,254.5C 395.803,252.953 401.136,251.62 406.5,250.5C 412.051,251.325 417.385,250.325 422.5,247.5C 423.086,247.709 423.586,248.043 424,248.5C 426,245.833 428,245.833 430,248.5C 431.373,248.596 432.873,248.43 434.5,248C 433.001,248.838 432.668,249.671 433.5,250.5C 419.449,254.903 405.283,259.237 391,263.5C 390.365,265.635 390.699,267.635 392,269.5C 400.245,275.754 406.245,283.754 410,293.5C 412.876,300.963 415.043,308.63 416.5,316.5C 423.976,307.185 432.81,299.518 443,293.5C 461.096,297.7 478.263,304.367 494.5,313.5C 494.511,315.017 495.177,316.184 496.5,317C 493.28,316.321 490.113,315.155 487,313.5C 485.077,314.802 483.243,314.635 481.5,313C 482.167,312.333 482.833,311.667 483.5,311C 476.336,307.665 469.17,304.498 462,301.5C 456.083,301.45 450.25,301.45 444.5,301.5C 445.203,303.716 446.536,305.549 448.5,307C 457.986,314.576 468.653,319.743 480.5,322.5C 485.319,324.176 490.319,325.676 495.5,327C 496.794,329.087 497.961,331.254 499,333.5C 499.494,331.866 499.66,330.199 499.5,328.5C 499.528,326.418 498.861,324.584 497.5,323C 497.833,322.667 498.167,322.333 498.5,322C 495.972,321.002 495.972,320.169 498.5,319.5C 500.177,320.187 501.844,320.854 503.5,321.5C 505.06,323.954 506.06,326.62 506.5,329.5C 539.131,327.519 569.131,317.852 596.5,300.5C 581.397,319.238 562.064,331.738 538.5,338C 526.669,341.194 514.669,343.527 502.5,345C 502,345.5 501.5,346 501,346.5C 483.753,341.459 467.919,333.626 453.5,323C 448.633,318.468 444.133,313.634 440,308.5C 432.259,317.398 424.759,326.398 417.5,335.5C 416.527,334.209 415.527,334.209 414.5,335.5C 413.201,334.91 412.368,333.91 412,332.5C 411.667,332.833 411.333,333.167 411,333.5C 409.829,332.107 408.329,331.273 406.5,331C 405.663,329.989 405.33,328.822 405.5,327.5C 407.852,312.913 404.852,299.58 396.5,287.5C 373.53,314.808 350.53,342.142 327.5,369.5C 322.812,364.48 318.145,359.48 313.5,354.5C 295.055,332.456 276.722,310.29 258.5,288C 257.668,287.312 257.002,287.479 256.5,288.5C 252.821,294.891 250.155,301.558 248.5,308.5C 246.539,310.119 245.206,312.286 244.5,315C 243.167,314.667 241.833,314.333 240.5,314C 241.833,314.667 241.833,315.333 240.5,316C 243.544,316.359 243.878,317.026 241.5,318C 243.766,319.514 244.932,321.681 245,324.5C 245.667,325.833 246.333,325.833 247,324.5C 247.808,326.579 247.641,328.579 246.5,330.5C 245.808,329.975 245.308,329.308 245,328.5C 244.484,331.251 243.317,333.584 241.5,335.5C 239.884,334.885 238.551,333.885 237.5,332.5C 236.702,332.957 236.369,333.624 236.5,334.5C 229.899,325.893 222.899,317.56 215.5,309.5C 199.291,327.613 179.291,339.613 155.5,345.5C 131.133,343.16 108.133,336.326 86.5,325C 75.447,318.302 65.7803,309.969 57.5,300C 84.8145,317.27 114.814,327.104 147.5,329.5C 149.109,323.405 152.442,318.572 157.5,315C 172.572,306.131 188.572,299.464 205.5,295C 209.625,294.146 213.625,294.48 217.5,296C 225,302.167 231.833,309 238,316.5C 240.402,301.706 246.068,288.373 255,276.5C 257.067,273.93 259.567,271.93 262.5,270.5C 263.549,267.92 264.216,265.254 264.5,262.5C 221.093,250.642 178.093,237.475 135.5,223C 115.452,213.294 97.952,200.127 83,183.5C 77.745,176.752 75.5784,169.252 76.5,161C 67.0789,150.665 58.2456,139.832 50,128.5C 41.4332,121.609 34.7665,113.276 30,103.5C 26.9238,93.8576 26.9238,84.191 30,74.5C 33.6572,61.5377 37.1572,48.5377 40.5,35.5C 56.4131,40.5813 72.0798,46.2479 87.5,52.5C 87.238,53.9778 87.5713,55.3112 88.5,56.5C 90.0016,57.0831 91.3349,57.9164 92.5,59C 92.1667,59.3333 91.8333,59.6667 91.5,60C 92.8333,60.3333 94.1667,60.6667 95.5,61C 94.7471,62.487 93.9138,62.6537 93,61.5C 91.2151,62.2401 89.3817,62.9067 87.5,63.5C 83.911,61.386 80.2444,59.5527 76.5,58C 77.87,56.5587 78.87,54.892 79.5,53C 78.0563,52.2195 76.723,52.3861 75.5,53.5C 76.1667,53.8333 76.8333,54.1667 77.5,54.5C 77.1924,55.3081 76.6924,55.9747 76,56.5C 73.6194,55.565 71.1194,55.2317 68.5,55.5C 64.0271,53.5655 59.3604,52.2322 54.5,51.5C 51.9899,51.8763 49.6565,52.7096 47.5,54C 46.6634,55.0113 46.33,56.1779 46.5,57.5C 44.0576,57.3537 43.3909,58.187 44.5,60C 42.8934,61.049 42.2267,62.549 42.5,64.5C 35.9456,81.5789 37.4456,97.9122 47,113.5C 57.4599,126.295 68.2932,138.795 79.5,151C 81.0806,151.707 82.5806,152.54 84,153.5C 81.6284,162.123 83.295,170.123 89,177.5C 105.403,197.061 125.57,211.394 149.5,220.5C 160.447,225.071 171.78,228.404 183.5,230.5C 210.39,239.019 237.556,247.019 265,254.5C 267.22,252.353 268.387,249.686 268.5,246.5C 269.345,245.329 270.011,243.995 270.5,242.5C 271.942,241.18 272.608,239.514 272.5,237.5C 272.16,234.856 272.827,232.523 274.5,230.5C 270.779,227.813 268.112,224.646 266.5,221C 267.167,220.667 267.833,220.333 268.5,220C 266.978,217.695 264.978,216.195 262.5,215.5C 262.263,214.209 262.596,213.209 263.5,212.5C 268.881,217.566 274.047,222.899 279,228.5C 284.458,222.873 290.624,218.206 297.5,214.5C 289.27,191.197 275.936,171.364 257.5,155C 250.5,149.333 243.5,143.667 236.5,138C 231.167,133.678 227.001,128.512 224,122.5C 221.86,88.5887 231.527,58.5887 253,32.5C 255.077,34.0758 256.577,36.0758 257.5,38.5C 249.961,57.0613 246.295,76.3946 246.5,96.5C 246.585,103.531 247.085,110.531 248,117.5C 270.523,137.865 286.523,162.532 296,191.5C 298.133,198.694 299.3,206.027 299.5,213.5C 318.153,208.192 336.82,208.192 355.5,213.5C 358.826,184.332 369.993,158.665 389,136.5C 394.333,129.833 400.333,123.833 407,118.5C 409.532,97.6645 408.532,76.9979 404,56.5C 402.526,50.244 400.359,44.244 397.5,38.5C 398.757,36.3211 400.257,34.3211 402,32.5C 423.877,58.4662 433.543,88.4662 431,122.5C 430.194,125.446 428.861,128.112 427,130.5C 415.888,139.31 405.055,148.477 394.5,158C 377.647,174.032 365.314,193.032 357.5,215C 364.508,218.34 370.674,222.84 376,228.5C 402.366,199.969 428.866,171.636 455.5,143.5 Z"/></g>
<g><path style="opacity:0.937" fill="#5e490f" d="M 175.5,203.5 C 183.341,204.548 191.008,206.714 198.5,210C 217.977,220.737 237.643,230.904 257.5,240.5C 251.223,239.199 245.223,237.033 239.5,234C 224.945,225.222 209.945,217.222 194.5,210C 184.35,207.106 174.017,205.106 163.5,204C 167.486,203.501 171.486,203.334 175.5,203.5 Z"/></g>
<g><path style="opacity:1" fill="#3a2f19" d="M 341.5,219.5 C 332.194,218.446 322.861,218.279 313.5,219C 310.282,219.9 307.282,221.067 304.5,222.5C 303.5,222.5 302.5,222.5 301.5,222.5C 303.942,221.281 306.276,219.781 308.5,218C 319.167,217.333 329.833,217.333 340.5,218C 341.056,218.383 341.389,218.883 341.5,219.5 Z"/></g>
<g><path style="opacity:0.925" fill="#f9bc0c" d="M 175.5,203.5 C 171.486,203.334 167.486,203.501 163.5,204C 174.017,205.106 184.35,207.106 194.5,210C 209.945,217.222 224.945,225.222 239.5,234C 245.223,237.033 251.223,239.199 257.5,240.5C 260.362,242.296 263.529,243.629 267,244.5C 268.03,244.836 268.53,245.503 268.5,246.5C 268.387,249.686 267.22,252.353 265,254.5C 237.556,247.019 210.39,239.019 183.5,230.5C 188.188,230.936 192.688,231.936 197,233.5C 203.085,233.201 208.919,232.034 214.5,230C 213.24,228.887 212.073,228.72 211,229.5C 210.641,226.456 209.974,226.122 209,228.5C 207.742,225.059 205.242,223.726 201.5,224.5C 201.22,221.713 199.887,219.547 197.5,218C 186.122,213.602 174.622,210.769 163,209.5C 161.417,207.301 161.25,204.968 162.5,202.5C 167.032,202.182 171.366,202.515 175.5,203.5 Z"/></g>
<g><path style="opacity:0.937" fill="#5d3f0a" d="M 170.5,162.5 C 173.629,166.131 176.963,169.631 180.5,173C 199.357,188.364 218.023,203.864 236.5,219.5C 231.732,216.58 227.066,213.414 222.5,210C 211.289,200.577 199.955,191.41 188.5,182.5C 181.312,175.966 174.145,169.299 167,162.5C 166.626,161.584 166.126,160.75 165.5,160C 165.833,159.833 166.167,159.667 166.5,159.5C 167.852,160.524 169.185,161.524 170.5,162.5 Z"/></g>
<g><path style="opacity:0.929" fill="#fabd0c" d="M 240.5,202.5 C 251.866,213.598 262.533,225.265 272.5,237.5C 272.608,239.514 271.942,241.18 270.5,242.5C 266.037,242.577 261.704,241.91 257.5,240.5C 237.643,230.904 217.977,220.737 198.5,210C 191.008,206.714 183.341,204.548 175.5,203.5C 180.545,203.391 185.378,203.391 190,203.5C 190.667,200.833 191.333,200.833 192,203.5C 194.044,202.994 196.044,202.661 198,202.5C 199.722,202.611 199.888,203.111 198.5,204C 200.833,204.667 203.167,204.667 205.5,204C 204.24,202.887 203.073,202.72 202,203.5C 201.348,201.277 199.848,200.11 197.5,200C 197.833,199.667 198.167,199.333 198.5,199C 196.513,197.681 195.346,195.848 195,193.5C 194.667,193.833 194.333,194.167 194,194.5C 192.212,190.877 189.379,188.544 185.5,187.5C 186.952,186.06 187.952,184.394 188.5,182.5C 199.955,191.41 211.289,200.577 222.5,210C 227.066,213.414 231.732,216.58 236.5,219.5C 218.023,203.864 199.357,188.364 180.5,173C 176.963,169.631 173.629,166.131 170.5,162.5C 170.414,161.504 170.748,160.671 171.5,160C 170.833,159.667 170.167,159.333 169.5,159C 171.679,157.152 173.513,154.985 175,152.5C 175.401,154.521 176.568,155.855 178.5,156.5C 179.328,162.159 182.162,166.493 187,169.5C 187.333,169.167 187.667,168.833 188,168.5C 189.106,171.133 190.94,173.133 193.5,174.5C 194.086,174.291 194.586,173.957 195,173.5C 197.86,175.939 200.527,178.605 203,181.5C 203.333,181.167 203.667,180.833 204,180.5C 204.402,181.872 204.902,183.205 205.5,184.5C 210.292,187.522 214.625,191.022 218.5,195C 218.167,195.333 217.833,195.667 217.5,196C 221.946,200.381 226.28,204.047 230.5,207C 229.66,208.666 230.16,208.833 232,207.5C 233.892,208.13 235.559,209.13 237,210.5C 237.913,207.648 237.08,205.481 234.5,204C 236.586,203.685 238.586,203.185 240.5,202.5 Z"/></g>
<g><path style="opacity:0.929" fill="#765d0a" d="M 236.5,219.5 C 242.599,223.083 248.599,226.917 254.5,231C 251.725,230.626 249.058,229.626 246.5,228C 242.975,225.302 239.642,222.469 236.5,219.5 Z"/></g>
<g><path style="opacity:0.941" fill="#31302d" d="M 87.5,52.5 C 112.431,63.2912 135.431,77.1245 156.5,94C 192.004,133.669 227.671,173.169 263.5,212.5C 262.596,213.209 262.263,214.209 262.5,215.5C 264.978,216.195 266.978,217.695 268.5,220C 267.833,220.333 267.167,220.667 266.5,221C 268.112,224.646 270.779,227.813 274.5,230.5C 272.827,232.523 272.16,234.856 272.5,237.5C 262.533,225.265 251.866,213.598 240.5,202.5C 220.874,180.371 201.04,158.371 181,136.5C 149.114,101.756 111.614,75.0898 68.5,56.5C 68.5,56.1667 68.5,55.8333 68.5,55.5C 71.1194,55.2317 73.6194,55.565 76,56.5C 76.6924,55.9747 77.1924,55.3081 77.5,54.5C 76.8333,54.1667 76.1667,53.8333 75.5,53.5C 76.723,52.3861 78.0563,52.2195 79.5,53C 78.87,54.892 77.87,56.5587 76.5,58C 80.2444,59.5527 83.911,61.386 87.5,63.5C 89.3817,62.9067 91.2151,62.2401 93,61.5C 93.9138,62.6537 94.7471,62.487 95.5,61C 94.1667,60.6667 92.8333,60.3333 91.5,60C 91.8333,59.6667 92.1667,59.3333 92.5,59C 91.3349,57.9164 90.0016,57.0831 88.5,56.5C 87.5713,55.3112 87.238,53.9778 87.5,52.5 Z"/></g>
<g><path style="opacity:0.961" fill="#fdc904" d="M 60.5,54.5 C 53.2868,53.7127 50.9535,56.7127 53.5,63.5C 57.7827,63.8503 61.9494,63.8503 66,63.5C 68.919,64.1871 71.7523,65.1871 74.5,66.5C 75.6753,65.1451 76.6753,65.3117 77.5,67C 77.1667,67.3333 76.8333,67.6667 76.5,68C 84.7405,69.8873 91.5739,73.3873 97,78.5C 97.4017,79.8721 97.9017,81.2054 98.5,82.5C 97.7261,83.7112 96.8928,83.7112 96,82.5C 95.1593,86.1202 95.826,89.4536 98,92.5C 102.758,95.1279 107.258,98.1279 111.5,101.5C 111.333,101.833 111.167,102.167 111,102.5C 107.25,100.041 103.417,97.7078 99.5,95.5C 99.1667,96 98.8333,96.5 98.5,97C 99.3169,98.49 100.15,99.99 101,101.5C 101.333,101.167 101.667,100.833 102,100.5C 103.03,103.257 104.697,104.591 107,104.5C 109.203,109.277 110.703,114.277 111.5,119.5C 110.813,125.653 110.146,131.82 109.5,138C 107.735,141.051 105.735,141.217 103.5,138.5C 102.21,136.343 101.376,134.01 101,131.5C 100.362,132.609 99.8623,133.775 99.5,135C 101.269,140.054 102.102,145.221 102,150.5C 100.817,146.232 99.817,141.899 99,137.5C 98.586,137.043 98.086,136.709 97.5,136.5C 96.712,139.475 96.3787,142.308 96.5,145C 98.4224,146.46 99.0891,148.127 98.5,150C 97.6433,150.689 96.9767,151.522 96.5,152.5C 98.5551,158.942 100.888,165.275 103.5,171.5C 107.167,174 110.833,176.5 114.5,179C 113.833,179.333 113.167,179.667 112.5,180C 113.711,180.893 113.711,181.726 112.5,182.5C 107.555,179.555 102.888,176.221 98.5,172.5C 97.6433,173.736 96.9766,175.069 96.5,176.5C 98.9934,179.248 101.993,181.248 105.5,182.5C 107.133,186.633 110.133,189.133 114.5,190C 116.351,191.684 118.018,193.517 119.5,195.5C 120.281,194.271 120.781,192.938 121,191.5C 121.5,192 122,192.5 122.5,193C 121.23,197.261 122.73,198.428 127,196.5C 127.743,198.441 127.576,200.274 126.5,202C 129.78,203.943 132.78,206.277 135.5,209C 133.699,209.317 133.366,209.984 134.5,211C 135.784,211.684 136.951,211.517 138,210.5C 138.483,211.448 138.649,212.448 138.5,213.5C 143.046,214.286 147.046,216.12 150.5,219C 149.944,219.383 149.611,219.883 149.5,220.5C 125.57,211.394 105.403,197.061 89,177.5C 83.295,170.123 81.6284,162.123 84,153.5C 82.5806,152.54 81.0806,151.707 79.5,151C 68.2932,138.795 57.4599,126.295 47,113.5C 37.4456,97.9122 35.9456,81.5789 42.5,64.5C 44.886,60.6033 47.886,57.1033 51.5,54C 54.6965,53.1955 57.6965,53.3622 60.5,54.5 Z"/></g>
<g><path style="opacity:0.966" fill="#fec403" d="M 60.5,54.5 C 63.221,54.9628 65.8877,55.6295 68.5,56.5C 111.614,75.0898 149.114,101.756 181,136.5C 201.04,158.371 220.874,180.371 240.5,202.5C 238.586,203.185 236.586,203.685 234.5,204C 237.08,205.481 237.913,207.648 237,210.5C 235.559,209.13 233.892,208.13 232,207.5C 230.16,208.833 229.66,208.666 230.5,207C 226.28,204.047 221.946,200.381 217.5,196C 217.833,195.667 218.167,195.333 218.5,195C 214.625,191.022 210.292,187.522 205.5,184.5C 204.902,183.205 204.402,181.872 204,180.5C 203.667,180.833 203.333,181.167 203,181.5C 200.527,178.605 197.86,175.939 195,173.5C 194.586,173.957 194.086,174.291 193.5,174.5C 190.94,173.133 189.106,171.133 188,168.5C 187.667,168.833 187.333,169.167 187,169.5C 182.162,166.493 179.328,162.159 178.5,156.5C 176.568,155.855 175.401,154.521 175,152.5C 173.513,154.985 171.679,157.152 169.5,159C 170.167,159.333 170.833,159.667 171.5,160C 170.748,160.671 170.414,161.504 170.5,162.5C 169.185,161.524 167.852,160.524 166.5,159.5C 166.167,159.667 165.833,159.833 165.5,160C 166.126,160.75 166.626,161.584 167,162.5C 174.145,169.299 181.312,175.966 188.5,182.5C 187.952,184.394 186.952,186.06 185.5,187.5C 189.379,188.544 192.212,190.877 194,194.5C 194.333,194.167 194.667,193.833 195,193.5C 195.346,195.848 196.513,197.681 198.5,199C 198.167,199.333 197.833,199.667 197.5,200C 199.848,200.11 201.348,201.277 202,203.5C 203.073,202.72 204.24,202.887 205.5,204C 203.167,204.667 200.833,204.667 198.5,204C 199.888,203.111 199.722,202.611 198,202.5C 196.044,202.661 194.044,202.994 192,203.5C 191.333,200.833 190.667,200.833 190,203.5C 185.378,203.391 180.545,203.391 175.5,203.5C 171.366,202.515 167.032,202.182 162.5,202.5C 161.25,204.968 161.417,207.301 163,209.5C 174.622,210.769 186.122,213.602 197.5,218C 199.887,219.547 201.22,221.713 201.5,224.5C 205.242,223.726 207.742,225.059 209,228.5C 209.974,226.122 210.641,226.456 211,229.5C 212.073,228.72 213.24,228.887 214.5,230C 208.919,232.034 203.085,233.201 197,233.5C 192.688,231.936 188.188,230.936 183.5,230.5C 171.78,228.404 160.447,225.071 149.5,220.5C 149.611,219.883 149.944,219.383 150.5,219C 147.046,216.12 143.046,214.286 138.5,213.5C 138.649,212.448 138.483,211.448 138,210.5C 136.951,211.517 135.784,211.684 134.5,211C 133.366,209.984 133.699,209.317 135.5,209C 132.78,206.277 129.78,203.943 126.5,202C 127.576,200.274 127.743,198.441 127,196.5C 122.73,198.428 121.23,197.261 122.5,193C 122,192.5 121.5,192 121,191.5C 120.781,192.938 120.281,194.271 119.5,195.5C 118.018,193.517 116.351,191.684 114.5,190C 110.133,189.133 107.133,186.633 105.5,182.5C 101.993,181.248 98.9934,179.248 96.5,176.5C 96.9766,175.069 97.6433,173.736 98.5,172.5C 102.888,176.221 107.555,179.555 112.5,182.5C 113.711,181.726 113.711,180.893 112.5,180C 113.167,179.667 113.833,179.333 114.5,179C 110.833,176.5 107.167,174 103.5,171.5C 100.888,165.275 98.5551,158.942 96.5,152.5C 96.9767,151.522 97.6433,150.689 98.5,150C 99.0891,148.127 98.4224,146.46 96.5,145C 96.3787,142.308 96.712,139.475 97.5,136.5C 98.086,136.709 98.586,137.043 99,137.5C 99.817,141.899 100.817,146.232 102,150.5C 102.102,145.221 101.269,140.054 99.5,135C 99.8623,133.775 100.362,132.609 101,131.5C 101.376,134.01 102.21,136.343 103.5,138.5C 105.735,141.217 107.735,141.051 109.5,138C 110.146,131.82 110.813,125.653 111.5,119.5C 110.703,114.277 109.203,109.277 107,104.5C 104.697,104.591 103.03,103.257 102,100.5C 101.667,100.833 101.333,101.167 101,101.5C 100.15,99.99 99.3169,98.49 98.5,97C 98.8333,96.5 99.1667,96 99.5,95.5C 103.417,97.7078 107.25,100.041 111,102.5C 111.167,102.167 111.333,101.833 111.5,101.5C 107.258,98.1279 102.758,95.1279 98,92.5C 95.826,89.4536 95.1593,86.1202 96,82.5C 96.8928,83.7112 97.7261,83.7112 98.5,82.5C 97.9017,81.2054 97.4017,79.8721 97,78.5C 91.5739,73.3873 84.7405,69.8873 76.5,68C 76.8333,67.6667 77.1667,67.3333 77.5,67C 76.6753,65.3117 75.6753,65.1451 74.5,66.5C 71.7523,65.1871 68.919,64.1871 66,63.5C 61.9494,63.8503 57.7827,63.8503 53.5,63.5C 50.9535,56.7127 53.2868,53.7127 60.5,54.5 Z"/></g>
<g><path style="opacity:0.965" fill="#38331b" d="M 68.5,55.5 C 68.5,55.8333 68.5,56.1667 68.5,56.5C 65.8877,55.6295 63.221,54.9628 60.5,54.5C 57.6965,53.3622 54.6965,53.1955 51.5,54C 47.886,57.1033 44.886,60.6033 42.5,64.5C 42.2267,62.549 42.8934,61.049 44.5,60C 43.3909,58.187 44.0576,57.3537 46.5,57.5C 46.33,56.1779 46.6634,55.0113 47.5,54C 49.6565,52.7096 51.9899,51.8763 54.5,51.5C 59.3604,52.2322 64.0271,53.5655 68.5,55.5 Z"/></g>
<g><path style="opacity:0.929" fill="#fdad06" d="M 351.5,235.5 C 350.662,235.158 350.328,234.492 350.5,233.5C 350.509,231.692 350.009,230.025 349,228.5C 346.469,227.099 344.136,225.433 342,223.5C 341.312,222.668 341.479,222.002 342.5,221.5C 347.136,221.566 350.636,223.566 353,227.5C 353.333,227.167 353.667,226.833 354,226.5C 363.321,229.154 366.988,235.154 365,244.5C 364.001,240.763 362.668,240.763 361,244.5C 360.42,247.547 360.753,247.881 362,245.5C 362.483,246.448 362.649,247.448 362.5,248.5C 360.5,249.167 358.5,249.833 356.5,250.5C 356.807,245.618 355.974,240.951 354,236.5C 353.329,235.748 352.496,235.414 351.5,235.5 Z"/></g>
<g><path style="opacity:0.937" fill="#6b3e11" d="M 420.5,230.5 C 419.713,232.104 418.38,232.771 416.5,232.5C 417.287,230.896 418.62,230.229 420.5,230.5 Z"/></g>
<g><path style="opacity:0.929" fill="#6b3f09" d="M 416.5,232.5 C 414.421,234.873 411.754,236.206 408.5,236.5C 410.849,234.659 413.515,233.326 416.5,232.5 Z"/></g>
<g><path style="opacity:0.954" fill="#f9b810" d="M 314.5,225.5 C 304.482,230.869 300.316,239.202 302,250.5C 304.185,258.048 306.518,265.382 309,272.5C 308.292,271.619 307.458,270.953 306.5,270.5C 303.5,266.833 300.167,263.5 296.5,260.5C 294.104,256.714 291.937,252.714 290,248.5C 285.961,236.251 289.795,227.584 301.5,222.5C 302.5,222.5 303.5,222.5 304.5,222.5C 307.947,222.186 311.28,221.352 314.5,220C 321.524,219.169 328.524,219.336 335.5,220.5C 329.28,221.199 323.113,222.199 317,223.5C 315.624,223.684 314.791,224.351 314.5,225.5 Z"/></g>
<g><path style="opacity:0.937" fill="#955b0c" d="M 408.5,236.5 C 401.316,239.894 393.983,242.894 386.5,245.5C 385.662,245.158 385.328,244.492 385.5,243.5C 393.238,241.365 400.905,239.031 408.5,236.5 Z"/></g>
<g><path style="opacity:0.929" fill="#ae7c19" d="M 257.5,240.5 C 261.704,241.91 266.037,242.577 270.5,242.5C 270.011,243.995 269.345,245.329 268.5,246.5C 268.53,245.503 268.03,244.836 267,244.5C 263.529,243.629 260.362,242.296 257.5,240.5 Z"/></g>
<g><path style="opacity:0.999" fill="#f0ab1a" d="M 341.5,219.5 C 351.43,221.211 359.596,225.878 366,233.5C 367.504,237.039 367.837,240.705 367,244.5C 362.352,255.823 355.352,265.49 346,273.5C 348.493,266.349 350.826,259.016 353,251.5C 353.85,246.017 353.35,240.683 351.5,235.5C 352.496,235.414 353.329,235.748 354,236.5C 355.974,240.951 356.807,245.618 356.5,250.5C 358.5,249.833 360.5,249.167 362.5,248.5C 362.649,247.448 362.483,246.448 362,245.5C 360.753,247.881 360.42,247.547 361,244.5C 362.668,240.763 364.001,240.763 365,244.5C 366.988,235.154 363.321,229.154 354,226.5C 353.667,226.833 353.333,227.167 353,227.5C 350.636,223.566 347.136,221.566 342.5,221.5C 341.479,222.002 341.312,222.668 342,223.5C 344.136,225.433 346.469,227.099 349,228.5C 350.009,230.025 350.509,231.692 350.5,233.5C 342.433,224.646 332.433,221.479 320.5,224C 318.482,224.505 316.482,225.005 314.5,225.5C 314.791,224.351 315.624,223.684 317,223.5C 323.113,222.199 329.28,221.199 335.5,220.5C 328.524,219.336 321.524,219.169 314.5,220C 311.28,221.352 307.947,222.186 304.5,222.5C 307.282,221.067 310.282,219.9 313.5,219C 322.861,218.279 332.194,218.446 341.5,219.5 Z"/></g>
<g><path style="opacity:1" fill="#4b3a14" d="M 296.5,260.5 C 300.167,263.5 303.5,266.833 306.5,270.5C 302.167,268.167 298.833,264.833 296.5,260.5 Z"/></g>
<g><path style="opacity:0.982" fill="#f8f9f9" d="M 278.5,268.5 C 283.347,267.84 287.181,269.507 290,273.5C 296.981,288.09 301.481,303.423 303.5,319.5C 298.458,319.985 294.624,317.985 292,313.5C 284.193,303.557 278.193,292.557 274,280.5C 272.307,275.085 273.807,271.085 278.5,268.5 Z"/></g>
<g><path style="opacity:0.983" fill="#f8f8f8" d="M 370.5,268.5 C 378.164,267.666 381.664,271 381,278.5C 376.014,293.981 367.847,307.481 356.5,319C 354.866,319.494 353.199,319.66 351.5,319.5C 353.204,303.353 357.704,288.02 365,273.5C 366.73,271.598 368.563,269.931 370.5,268.5 Z"/></g>
<g><path style="opacity:0.976" fill="#fbb608" d="M 313.5,354.5 C 307.007,353.134 305.674,354.967 309.5,360C 309,360.5 308.5,361 308,361.5C 304.657,360.538 301.491,358.538 298.5,355.5C 297.548,353.955 297.215,352.288 297.5,350.5C 295.403,350.003 293.57,349.67 292,349.5C 291.667,350.167 291.333,350.833 291,351.5C 287.015,351.612 283.348,350.278 280,347.5C 279.667,347.833 279.333,348.167 279,348.5C 277.245,346.522 275.078,345.689 272.5,346C 273.357,346.689 274.023,347.522 274.5,348.5C 273.355,349.891 273.355,351.224 274.5,352.5C 277.829,354.506 280.829,356.839 283.5,359.5C 267.824,351.324 255.991,339.324 248,323.5C 247.412,318.472 247.578,313.472 248.5,308.5C 250.155,301.558 252.821,294.891 256.5,288.5C 257.002,287.479 257.668,287.312 258.5,288C 276.722,310.29 295.055,332.456 313.5,354.5 Z"/></g>
<g><path style="opacity:0.051" fill="#9c9d9c" d="M 596.5,299.5 C 597.833,300.167 597.833,300.167 596.5,299.5 Z"/></g>
<g><path style="opacity:0.992" fill="#fab00a" d="M 405.5,327.5 C 403.255,330.32 401.255,333.32 399.5,336.5C 394.5,340.833 389.833,345.5 385.5,350.5C 374.116,358.526 362.116,365.526 349.5,371.5C 342.948,373.939 336.281,376.105 329.5,378C 326.779,378.602 324.113,378.435 321.5,377.5C 307.678,373.579 295.012,367.579 283.5,359.5C 280.829,356.839 277.829,354.506 274.5,352.5C 273.355,351.224 273.355,349.891 274.5,348.5C 274.023,347.522 273.357,346.689 272.5,346C 275.078,345.689 277.245,346.522 279,348.5C 279.333,348.167 279.667,347.833 280,347.5C 283.348,350.278 287.015,351.612 291,351.5C 291.333,350.833 291.667,350.167 292,349.5C 293.57,349.67 295.403,350.003 297.5,350.5C 297.215,352.288 297.548,353.955 298.5,355.5C 301.491,358.538 304.657,360.538 308,361.5C 308.5,361 309,360.5 309.5,360C 305.674,354.967 307.007,353.134 313.5,354.5C 318.145,359.48 322.812,364.48 327.5,369.5C 350.53,342.142 373.53,314.808 396.5,287.5C 404.852,299.58 407.852,312.913 405.5,327.5 Z"/></g>
<g><path style="opacity:0.886" fill="#39332a" d="M 444.5,301.5 C 450.25,301.45 456.083,301.45 462,301.5C 469.17,304.498 476.336,307.665 483.5,311C 482.833,311.667 482.167,312.333 481.5,313C 483.243,314.635 485.077,314.802 487,313.5C 490.113,315.155 493.28,316.321 496.5,317C 495.177,316.184 494.511,315.017 494.5,313.5C 498.12,315.453 501.12,318.119 503.5,321.5C 501.844,320.854 500.177,320.187 498.5,319.5C 495.972,320.169 495.972,321.002 498.5,322C 498.167,322.333 497.833,322.667 497.5,323C 498.861,324.584 499.528,326.418 499.5,328.5C 497.861,324.861 495.195,322.195 491.5,320.5C 476.916,311.635 461.249,305.302 444.5,301.5 Z"/></g>
<g><path style="opacity:0.916" fill="#f7a524" d="M 444.5,301.5 C 461.249,305.302 476.916,311.635 491.5,320.5C 491.414,321.496 491.748,322.329 492.5,323C 488.476,323.497 484.476,323.331 480.5,322.5C 468.653,319.743 457.986,314.576 448.5,307C 446.536,305.549 445.203,303.716 444.5,301.5 Z"/></g>
<g><path style="opacity:0.922" fill="#f2a82b" d="M 156.5,332.5 C 155.566,331.432 155.232,330.099 155.5,328.5C 157.472,324.482 160.472,321.315 164.5,319C 173.282,314.274 182.282,310.108 191.5,306.5C 188.141,309.03 184.475,311.364 180.5,313.5C 179.164,315.375 179.664,316.708 182,317.5C 187.643,315.764 193.143,313.598 198.5,311C 198.043,310.586 197.709,310.086 197.5,309.5C 199.5,308.5 201.5,307.5 203.5,306.5C 202.672,305.585 201.672,304.919 200.5,304.5C 198.382,305.946 196.049,306.613 193.5,306.5C 198.691,303.119 204.358,301.785 210.5,302.5C 203.542,309.986 195.209,315.486 185.5,319C 177.687,321.953 169.687,324.287 161.5,326C 158.466,327.191 156.799,329.358 156.5,332.5 Z"/></g>
<g><path style="opacity:0.922" fill="#fea417" d="M 191.5,306.5 C 192.167,306.5 192.833,306.5 193.5,306.5C 196.049,306.613 198.382,305.946 200.5,304.5C 201.672,304.919 202.672,305.585 203.5,306.5C 201.5,307.5 199.5,308.5 197.5,309.5C 197.709,310.086 198.043,310.586 198.5,311C 193.143,313.598 187.643,315.764 182,317.5C 179.664,316.708 179.164,315.375 180.5,313.5C 184.475,311.364 188.141,309.03 191.5,306.5 Z"/></g>
<g><path style="opacity:0.898" fill="#dba445" d="M 491.5,320.5 C 495.195,322.195 497.861,324.861 499.5,328.5C 499.66,330.199 499.494,331.866 499,333.5C 497.961,331.254 496.794,329.087 495.5,327C 490.319,325.676 485.319,324.176 480.5,322.5C 484.476,323.331 488.476,323.497 492.5,323C 491.748,322.329 491.414,321.496 491.5,320.5 Z"/></g>
<g><path style="opacity:0.989" fill="#31302e" d="M 248.5,308.5 C 247.578,313.472 247.412,318.472 248,323.5C 255.991,339.324 267.824,351.324 283.5,359.5C 295.012,367.579 307.678,373.579 321.5,377.5C 322.514,378.765 324.014,379.431 326,379.5C 330.786,378.462 335.62,377.629 340.5,377C 343.596,375.128 346.596,373.295 349.5,371.5C 362.116,365.526 374.116,358.526 385.5,350.5C 388.558,347.646 392.225,345.813 396.5,345C 398.213,343.622 399.547,341.955 400.5,340C 399.833,339.667 399.167,339.333 398.5,339C 399.252,338.329 399.586,337.496 399.5,336.5C 401.255,333.32 403.255,330.32 405.5,327.5C 405.33,328.822 405.663,329.989 406.5,331C 408.329,331.273 409.829,332.107 411,333.5C 411.333,333.167 411.667,332.833 412,332.5C 412.368,333.91 413.201,334.91 414.5,335.5C 415.527,334.209 416.527,334.209 417.5,335.5C 417.17,342.2 417.503,348.866 418.5,355.5C 427.794,350.847 437.461,347.18 447.5,344.5C 449.697,344.848 451.53,345.848 453,347.5C 460.568,358.087 466.902,369.42 472,381.5C 477.803,397.91 483.803,414.244 490,430.5C 492.29,437.221 491.79,443.721 488.5,450C 507.511,476.179 532.844,492.845 564.5,500C 549.561,502.117 535.228,500.117 521.5,494C 499.281,483.807 480.781,468.974 466,449.5C 452.617,420.851 443.784,390.851 439.5,359.5C 430.943,364.885 423.11,371.219 416,378.5C 415.56,380.866 415.06,383.199 414.5,385.5C 413.946,383.111 412.446,381.445 410,380.5C 409.585,382.291 408.585,383.624 407,384.5C 406.607,387.346 406.774,389.846 407.5,392C 405.699,392.317 405.366,392.984 406.5,394C 405.151,394.772 404.318,395.939 404,397.5C 403.667,397.167 403.333,396.833 403,396.5C 402.517,397.448 402.351,398.448 402.5,399.5C 401.041,399.433 399.708,399.766 398.5,400.5C 401.617,391.366 404.117,382.032 406,372.5C 406.821,369.446 406.655,366.446 405.5,363.5C 384.344,389.164 358.177,407.831 327,419.5C 295.662,407.504 269.329,388.504 248,362.5C 247.958,369.585 248.791,376.585 250.5,383.5C 249.778,383.082 249.278,382.416 249,381.5C 248.667,381.833 248.333,382.167 248,382.5C 247.667,379.833 247.333,377.167 247,374.5C 246.667,375.833 246.333,377.167 246,378.5C 245.167,375.5 244.333,372.5 243.5,369.5C 242.086,370.624 240.586,371.624 239,372.5C 236.598,370.22 234.765,367.553 233.5,364.5C 235.298,362.668 237.132,362.335 239,363.5C 240.845,361.812 242.679,360.979 244.5,361C 245.573,359.584 245.573,358.25 244.5,357C 245.687,355.981 246.687,354.814 247.5,353.5C 246.249,350.943 245.416,348.276 245,345.5C 243.653,341.625 242.486,341.625 241.5,345.5C 240.539,348.631 240.539,351.464 241.5,354C 240.833,354.667 240.167,355.333 239.5,356C 240.731,357.183 240.731,358.349 239.5,359.5C 238.304,359.154 238.304,358.654 239.5,358C 236.456,357.641 236.122,356.974 238.5,356C 238.272,355.601 237.938,355.435 237.5,355.5C 237.795,348.412 237.462,341.412 236.5,334.5C 236.369,333.624 236.702,332.957 237.5,332.5C 238.551,333.885 239.884,334.885 241.5,335.5C 243.317,333.584 244.484,331.251 245,328.5C 245.308,329.308 245.808,329.975 246.5,330.5C 247.641,328.579 247.808,326.579 247,324.5C 246.333,325.833 245.667,325.833 245,324.5C 244.932,321.681 243.766,319.514 241.5,318C 243.878,317.026 243.544,316.359 240.5,316C 241.833,315.333 241.833,314.667 240.5,314C 241.833,314.333 243.167,314.667 244.5,315C 245.206,312.286 246.539,310.119 248.5,308.5 Z"/></g>
<g><path style="opacity:0.906" fill="#936a29" d="M 155.5,328.5 C 155.232,330.099 155.566,331.432 156.5,332.5C 156.631,333.376 156.298,334.043 155.5,334.5C 154.207,332.364 154.207,330.364 155.5,328.5 Z"/></g>
<g><path style="opacity:0.947" fill="#3e3425" d="M 399.5,336.5 C 399.586,337.496 399.252,338.329 398.5,339C 399.167,339.333 399.833,339.667 400.5,340C 399.547,341.955 398.213,343.622 396.5,345C 392.225,345.813 388.558,347.646 385.5,350.5C 389.833,345.5 394.5,340.833 399.5,336.5 Z"/></g>
<g><path style="opacity:0.894" fill="#eea828" d="M 205.5,367.5 C 204.677,369.987 203.677,372.321 202.5,374.5C 202.85,371.278 203.517,368.112 204.5,365C 204.491,363.596 203.991,362.43 203,361.5C 200.305,364.611 198.972,368.277 199,372.5C 198.549,370.071 197.715,369.904 196.5,372C 197.603,373.68 197.27,375.18 195.5,376.5C 196.326,377.451 196.492,378.451 196,379.5C 193.425,379.681 191.259,381.014 189.5,383.5C 193.278,373.277 198.612,363.943 205.5,355.5C 205.833,356.833 206.167,358.167 206.5,359.5C 206.163,362.176 205.83,364.843 205.5,367.5 Z"/></g>
<g><path style="opacity:0.912" fill="#f8a323" d="M 472.5,404.5 C 472.664,407.187 472.497,409.854 472,412.5C 471.586,412.957 471.086,413.291 470.5,413.5C 469.735,412.388 468.735,411.721 467.5,411.5C 459.407,396.302 453.24,380.302 449,363.5C 448.186,361.098 448.353,358.765 449.5,356.5C 460.904,370.643 468.571,386.643 472.5,404.5 Z"/></g>
<g><path style="opacity:0.984" fill="#fbb20a" d="M 398.5,400.5 C 396.354,405.615 394.02,410.615 391.5,415.5C 387.141,419.528 382.807,423.528 378.5,427.5C 369.419,433.241 360.086,438.575 350.5,443.5C 342.714,446.262 334.881,448.929 327,451.5C 313.038,448.096 300.205,442.43 288.5,434.5C 288.586,433.504 288.252,432.671 287.5,432C 280.881,429.556 275.548,425.389 271.5,419.5C 269.677,418.253 267.677,417.586 265.5,417.5C 264.115,416.426 262.949,415.093 262,413.5C 259.725,407.955 257.225,402.622 254.5,397.5C 253.943,392.835 252.61,388.502 250.5,384.5C 250.5,384.167 250.5,383.833 250.5,383.5C 248.791,376.585 247.958,369.585 248,362.5C 269.329,388.504 295.662,407.504 327,419.5C 358.177,407.831 384.344,389.164 405.5,363.5C 406.655,366.446 406.821,369.446 406,372.5C 404.117,382.032 401.617,391.366 398.5,400.5 Z"/></g>
<g><path style="opacity:1" fill="#42361a" d="M 349.5,371.5 C 346.596,373.295 343.596,375.128 340.5,377C 335.62,377.629 330.786,378.462 326,379.5C 324.014,379.431 322.514,378.765 321.5,377.5C 324.113,378.435 326.779,378.602 329.5,378C 336.281,376.105 342.948,373.939 349.5,371.5 Z"/></g>
<g><path style="opacity:1" fill="#35322e" d="M 211.5,345.5 C 210.77,346.712 209.77,347.712 208.5,348.5C 209.167,348.833 209.833,349.167 210.5,349.5C 209.966,351.614 208.966,353.448 207.5,355C 208.795,358.786 208.795,362.62 207.5,366.5C 206.817,366.863 206.15,367.196 205.5,367.5C 205.83,364.843 206.163,362.176 206.5,359.5C 206.167,358.167 205.833,356.833 205.5,355.5C 198.612,363.943 193.278,373.277 189.5,383.5C 184.599,395.532 180.265,407.866 176.5,420.5C 172.818,426.566 171.152,433.233 171.5,440.5C 170.677,437.023 170.177,433.356 170,429.5C 167.772,428.701 166.439,429.701 166,432.5C 165.722,431.584 165.222,430.918 164.5,430.5C 172.605,406.62 182.105,383.287 193,360.5C 196.378,355.578 199.878,350.745 203.5,346C 206.078,344.187 208.745,344.02 211.5,345.5 Z"/></g>
<g><path style="opacity:0.964" fill="#303130" d="M 250.5,383.5 C 250.5,383.833 250.5,384.167 250.5,384.5C 251.057,389.165 252.39,393.498 254.5,397.5C 257.225,402.622 259.725,407.955 262,413.5C 262.949,415.093 264.115,416.426 265.5,417.5C 271.912,424.872 279.578,430.538 288.5,434.5C 300.205,442.43 313.038,448.096 327,451.5C 334.881,448.929 342.714,446.262 350.5,443.5C 357.307,442.398 363.307,440.231 368.5,437C 368.167,436.667 367.833,436.333 367.5,436C 371.281,435.144 374.615,433.644 377.5,431.5C 377.433,430.041 377.766,428.708 378.5,427.5C 384.113,424.887 388.446,420.887 391.5,415.5C 394.02,410.615 396.354,405.615 398.5,400.5C 399.708,399.766 401.041,399.433 402.5,399.5C 402.351,398.448 402.517,397.448 403,396.5C 403.333,396.833 403.667,397.167 404,397.5C 404.318,395.939 405.151,394.772 406.5,394C 405.366,392.984 405.699,392.317 407.5,392C 406.774,389.846 406.607,387.346 407,384.5C 408.585,383.624 409.585,382.291 410,380.5C 412.446,381.445 413.946,383.111 414.5,385.5C 413.226,391.427 411.559,397.26 409.5,403C 415.785,412.398 421.952,421.898 428,431.5C 433.059,439.92 436.059,448.92 437,458.5C 436,459.167 435,459.833 434,460.5C 422.239,484.528 409.072,507.695 394.5,530C 391.522,531.882 388.355,533.382 385,534.5C 381.759,549.004 380.759,563.671 382,578.5C 383.966,591.094 389.133,602.094 397.5,611.5C 374.852,602.08 364.185,584.913 365.5,560C 365.09,550.304 366.757,540.97 370.5,532C 368.742,529.733 368.242,527.233 369,524.5C 370.601,518.363 372.601,512.363 375,506.5C 387.03,483.664 401.53,462.664 418.5,443.5C 414.012,436.033 408.679,429.199 402.5,423C 380.071,456.948 357.904,491.448 336,526.5C 330.631,532.698 324.964,533.032 319,527.5C 296.819,492.464 274.653,457.464 252.5,422.5C 246.308,429.06 240.975,436.226 236.5,444C 243.398,450.898 249.565,458.398 255,466.5C 264.087,479.667 272.42,493.333 280,507.5C 282.747,513.573 284.58,519.906 285.5,526.5C 285.284,528.384 284.617,530.051 283.5,531.5C 291.885,551.753 291.385,571.753 282,591.5C 275.738,601.857 266.904,608.69 255.5,612C 267.664,599.355 273.664,584.188 273.5,566.5C 273.117,555.673 271.617,545.006 269,534.5C 264.807,533.438 261.141,531.438 258,528.5C 244.319,506.479 231.653,483.813 220,460.5C 219.097,459.299 217.931,458.465 216.5,458C 218.778,447.934 222.611,438.434 228,429.5C 233.586,420.661 239.419,411.994 245.5,403.5C 242.844,395.207 240.344,386.874 238,378.5C 230.916,371.412 223.249,365.078 215,359.5C 211.147,390.581 202.48,420.248 189,448.5C 170.327,474.939 145.16,492.106 113.5,500C 105.812,500.831 98.145,500.665 90.5,499.5C 121.258,492.554 146.091,476.554 165,451.5C 164.551,447.223 164.051,442.889 163.5,438.5C 163.614,435.783 163.948,433.116 164.5,430.5C 165.222,430.918 165.722,431.584 166,432.5C 166.439,429.701 167.772,428.701 170,429.5C 170.177,433.356 170.677,437.023 171.5,440.5C 172.315,441.429 173.148,442.429 174,443.5C 174.38,437.198 175.88,431.198 178.5,425.5C 188.895,409.707 196.895,392.707 202.5,374.5C 203.677,372.321 204.677,369.987 205.5,367.5C 206.15,367.196 206.817,366.863 207.5,366.5C 208.795,362.62 208.795,358.786 207.5,355C 208.966,353.448 209.966,351.614 210.5,349.5C 209.833,349.167 209.167,348.833 208.5,348.5C 209.77,347.712 210.77,346.712 211.5,345.5C 220.388,348.278 229.055,351.612 237.5,355.5C 237.938,355.435 238.272,355.601 238.5,356C 236.122,356.974 236.456,357.641 239.5,358C 238.304,358.654 238.304,359.154 239.5,359.5C 240.731,358.349 240.731,357.183 239.5,356C 240.167,355.333 240.833,354.667 241.5,354C 240.539,351.464 240.539,348.631 241.5,345.5C 242.486,341.625 243.653,341.625 245,345.5C 245.416,348.276 246.249,350.943 247.5,353.5C 246.687,354.814 245.687,355.981 244.5,357C 245.573,358.25 245.573,359.584 244.5,361C 242.679,360.979 240.845,361.812 239,363.5C 237.132,362.335 235.298,362.668 233.5,364.5C 234.765,367.553 236.598,370.22 239,372.5C 240.586,371.624 242.086,370.624 243.5,369.5C 244.333,372.5 245.167,375.5 246,378.5C 246.333,377.167 246.667,375.833 247,374.5C 247.333,377.167 247.667,379.833 248,382.5C 248.333,382.167 248.667,381.833 249,381.5C 249.278,382.416 249.778,383.082 250.5,383.5 Z"/></g>
<g><path style="opacity:0.965" fill="#453314" d="M 250.5,384.5 C 252.61,388.502 253.943,392.835 254.5,397.5C 252.39,393.498 251.057,389.165 250.5,384.5 Z"/></g>
<g><path style="opacity:0.905" fill="#f7a71f" d="M 202.5,374.5 C 196.895,392.707 188.895,409.707 178.5,425.5C 176.744,424.448 176.077,422.781 176.5,420.5C 180.265,407.866 184.599,395.532 189.5,383.5C 191.259,381.014 193.425,379.681 196,379.5C 196.492,378.451 196.326,377.451 195.5,376.5C 197.27,375.18 197.603,373.68 196.5,372C 197.715,369.904 198.549,370.071 199,372.5C 198.972,368.277 200.305,364.611 203,361.5C 203.991,362.43 204.491,363.596 204.5,365C 203.517,368.112 202.85,371.278 202.5,374.5 Z"/></g>
<g><path style="opacity:0.914" fill="#e79c2b" d="M 472.5,404.5 C 478.474,416.431 481.808,429.098 482.5,442.5C 481.5,442.5 480.5,442.5 479.5,442.5C 479.79,438.064 479.29,433.73 478,429.5C 474.236,423.637 470.736,417.637 467.5,411.5C 468.735,411.721 469.735,412.388 470.5,413.5C 471.086,413.291 471.586,412.957 472,412.5C 472.497,409.854 472.664,407.187 472.5,404.5 Z"/></g>
<g><path style="opacity:0.929" fill="#eab524" d="M 265.5,417.5 C 267.677,417.586 269.677,418.253 271.5,419.5C 275.548,425.389 280.881,429.556 287.5,432C 288.252,432.671 288.586,433.504 288.5,434.5C 279.578,430.538 271.912,424.872 265.5,417.5 Z"/></g>
<g><path style="opacity:0.949" fill="#453316" d="M 391.5,415.5 C 388.446,420.887 384.113,424.887 378.5,427.5C 382.807,423.528 387.141,419.528 391.5,415.5 Z"/></g>
<g><path style="opacity:0.906" fill="#e09e30" d="M 176.5,420.5 C 176.077,422.781 176.744,424.448 178.5,425.5C 175.88,431.198 174.38,437.198 174,443.5C 173.148,442.429 172.315,441.429 171.5,440.5C 171.152,433.233 172.818,426.566 176.5,420.5 Z"/></g>
<g><path style="opacity:0.937" fill="#3c3223" d="M 378.5,427.5 C 377.766,428.708 377.433,430.041 377.5,431.5C 374.615,433.644 371.281,435.144 367.5,436C 367.833,436.333 368.167,436.667 368.5,437C 363.307,440.231 357.307,442.398 350.5,443.5C 360.086,438.575 369.419,433.241 378.5,427.5 Z"/></g>
<g><path style="opacity:0.914" fill="#f0ab2a" d="M 427.5,450.5 C 428.649,450.791 429.316,451.624 429.5,453C 421.92,469.659 413.42,485.826 404,501.5C 399.584,509.333 394.918,517 390,524.5C 382.463,527.627 381.796,526.627 388,521.5C 400.994,497.689 414.161,474.022 427.5,450.5 Z"/></g>
<g><path style="opacity:0.898" fill="#f1a51b" d="M 224.5,451.5 C 225.822,451.33 226.989,451.663 228,452.5C 241.802,477.277 255.968,501.777 270.5,526C 266.316,527.165 263.483,525.665 262,521.5C 249.16,499.823 236.827,477.823 225,455.5C 224.51,454.207 224.343,452.873 224.5,451.5 Z"/></g>
<g><path style="opacity:0.267" fill="#46474a" d="M 397.5,611.5 C 398.833,612.167 398.833,612.167 397.5,611.5 Z"/></g>
</svg>
